<svg xmlns="http://www.w3.org/2000/svg" viewBox="0 0 333.05 215.15"><g id="Ebene_2" data-name="Ebene 2"><g id="Ebene_1-2" data-name="Ebene 1"><path d="M194.71,82.3V80.85h2.41v2a4.23,4.23,0,0,1,4.14-2.31c1.15,0,4.62.39,4.62,4.34v8.57h-2.41v-8a2.68,2.68,0,0,0-.67-2.12,3.27,3.27,0,0,0-2.31-.87c-1.74,0-3.37,1.25-3.37,3.76v7.22h-2.41V82.3Z" style="fill:#3c3c3b"/><path d="M211.09,87.5c-.1,2.6,1.06,4.53,3.66,4.53a2.72,2.72,0,0,0,3-2.6h2.41a4.33,4.33,0,0,1-1.06,2.6,5.81,5.81,0,0,1-4.43,1.64c-4.05,0-6-2.41-6-6.46,0-2.5.48-4.53,2.5-5.88a6.47,6.47,0,0,1,3.57-1c5.78,0,5.68,5,5.58,7h-9.24Zm6.84-1.64c0-1.15-.2-3.76-3.18-3.76a3.53,3.53,0,0,0-3.57,3.76Z" style="fill:#3c3c3b"/><path d="M222,80.76h2.31V78.15l2.41-.77v3.38h2.89v1.73h-2.89V90c0,.58,0,1.64,1.74,1.64.48,0,1-.09,1.15-.09v1.83a10.69,10.69,0,0,1-2,.19c-2.22,0-3.28-.68-3.28-2.7V82.49H222Z" style="fill:#3c3c3b"/><polygon points="231.22 90.97 238.16 82.59 231.61 82.59 231.61 80.85 240.86 80.85 240.86 82.78 233.73 91.55 240.86 91.55 240.86 93.38 231.22 93.38 231.22 90.97" style="fill:#3c3c3b"/><polygon points="244.81 80.85 247.89 90.87 251.16 80.85 254.34 80.85 257.23 90.78 260.51 80.85 263.01 80.85 258.49 93.38 255.69 93.38 252.61 83.07 249.33 93.38 246.44 93.38 242.2 80.85 244.81 80.85" style="fill:#3c3c3b"/><path d="M267,87.5C266.87,90.1,268,92,270.63,92a2.72,2.72,0,0,0,3-2.6H276A4.4,4.4,0,0,1,275,92a5.81,5.81,0,0,1-4.43,1.64c-4,0-6-2.41-6-6.46,0-2.5.48-4.53,2.5-5.88a6.45,6.45,0,0,1,3.57-1c5.78,0,5.68,5,5.58,7H267Zm6.84-1.64c0-1.15-.19-3.76-3.17-3.76a3.53,3.53,0,0,0-3.57,3.76Z" style="fill:#3c3c3b"/><path d="M279.87,83.36c0-.87-.09-1.74-.09-2.6h2.41l.09,2.4a3.64,3.64,0,0,1,3.09-2.5,11.34,11.34,0,0,1,1.63-.1v2.31c-.09-.09-.29-.09-.48-.09h-.67c-2.89,0-3.47,1.64-3.47,3.85v6.75H280v-10Z" style="fill:#3c3c3b"/><polygon points="289.61 75.17 292.01 75.17 292.01 85.96 296.83 80.85 300.01 80.85 294.52 86.15 300.3 93.38 297.12 93.38 292.01 86.63 292.01 93.38 289.61 93.38 289.61 75.17" style="fill:#3c3c3b"/><path d="M196.83,112.16v8.1c0,1.25.29,2.79,2.69,2.79a3.27,3.27,0,0,0,3-1.45,3.72,3.72,0,0,0,.58-2.31v-7.13h2.5v10.22c0,.28.1,1.63.1,2.31h-2.5l-.1-2.12a4.13,4.13,0,0,1-4.14,2.31c-3.18,0-4.63-1.73-4.63-4.24v-8.48Z" style="fill:#3c3c3b"/><path d="M210.41,113.61v-1.45h2.41v2a4.23,4.23,0,0,1,4.14-2.32c1.16,0,4.63.39,4.63,4.34v8.57h-2.51v-8a2.69,2.69,0,0,0-.67-2.12,3.29,3.29,0,0,0-2.31-.87c-1.74,0-3.38,1.25-3.38,3.76v7.22h-2.4V113.61Z" style="fill:#3c3c3b"/><path d="M225.54,106.67h2.89v2.6h-2.89Zm.19,5.49h2.41v12.62h-2.41Z" style="fill:#3c3c3b"/><polygon points="231.41 112.16 234.11 112.16 238.25 122.18 242.2 112.16 244.9 112.16 239.22 124.78 236.81 124.78 231.41 112.16" style="fill:#3c3c3b"/><path d="M249.14,118.91c-.1,2.6,1.06,4.52,3.66,4.52a2.73,2.73,0,0,0,3-2.6h2.41a4.42,4.42,0,0,1-1.06,2.6,5.81,5.81,0,0,1-4.43,1.64c-4.05,0-6-2.5-6-6.45,0-2.51.48-4.53,2.51-5.88a6.26,6.26,0,0,1,3.47-1c5.78,0,5.68,5,5.58,7h-9.15Zm6.74-1.64c0-1.25-.19-3.76-3.17-3.76a3.52,3.52,0,0,0-3.57,3.76Z" style="fill:#3c3c3b"/><path d="M262.05,114.76c0-.86-.1-1.73-.1-2.6h2.41l.1,2.41a3.63,3.63,0,0,1,3.08-2.5,10.77,10.77,0,0,1,1.64-.1v2.31a.77.77,0,0,0-.48-.09H268c-2.89,0-3.56,1.63-3.56,3.85v6.74h-2.41Z" style="fill:#3c3c3b"/><path d="M273.8,121c0,1,.49,2.31,2.8,2.31a2.7,2.7,0,0,0,2.21-.77,1.69,1.69,0,0,0,.39-1.16c0-1.25-.87-1.44-2.79-1.93-2.7-.57-4.92-1.15-4.92-3.75,0-2.31,2-3.86,5-3.86,1.64,0,3.86.49,4.63,1.93a4.47,4.47,0,0,1,.29,1.83h-2.51c.1-1.93-1.64-2-2.5-2-.39,0-2.61,0-2.61,1.83,0,1.15,1.16,1.44,1.83,1.64,3.57.86,4.34,1.06,5.11,1.73a3.25,3.25,0,0,1,1,2.31A3.69,3.69,0,0,1,280,124.3a7.5,7.5,0,0,1-3.85.87c-2.6,0-5.11-1.06-5-4h2.69Z" style="fill:#3c3c3b"/><path d="M285,106.67h2.89v2.6H285Zm.29,5.49h2.41v12.62h-2.41Z" style="fill:#3c3c3b"/><path d="M290.38,112.07h2.31v-2.6l2.41-.78v3.38H298v1.73H295.1v7.52c0,.57,0,1.63,1.73,1.63.48,0,1-.09,1.16-.09v1.83a10.9,10.9,0,0,1-2,.19c-2.21,0-3.27-.67-3.27-2.7V113.8h-2.31Z" style="fill:#3c3c3b"/><path d="M308.78,124.78a6.28,6.28,0,0,1-.2-1.92,4.13,4.13,0,0,1-3.95,2.31c-3,0-4.52-1.64-4.52-3.76a4.19,4.19,0,0,1,2.21-3.66,10,10,0,0,1,4.43-.87,11.32,11.32,0,0,1,1.74.1c0-1.54,0-2.22-.48-2.79a3.24,3.24,0,0,0-2.22-.87c-2.41,0-2.6,1.64-2.6,2.12h-2.41a4.59,4.59,0,0,1,.87-2.41c1-1.06,2.79-1.35,4.14-1.35,1.83,0,3.85.58,4.53,1.83a4.1,4.1,0,0,1,.48,1.93l-.1,6a23.84,23.84,0,0,0,.2,3.18h-2.12Zm-6.65-18.11h2.31v2.6h-2.31Zm5,11.85c-1,0-4.63,0-4.63,2.6,0,.77.49,2.22,2.7,2.22a3,3,0,0,0,2.7-1.35c.58-.87.58-1.54.58-3.28a5.33,5.33,0,0,0-1.35-.19m-.1-11.85h2.41v2.6H307Z" style="fill:#3c3c3b"/><path d="M313.21,112.07h2.31v-2.6l2.41-.78v3.38h2.89v1.73h-2.89v7.52c0,.57,0,1.63,1.73,1.63.49,0,1-.09,1.16-.09v1.83a10.78,10.78,0,0,1-2,.19c-2.22,0-3.28-.67-3.28-2.7V113.8h-2.31Z" style="fill:#3c3c3b"/><path d="M325.15,121c0,1,.49,2.31,2.8,2.31a2.7,2.7,0,0,0,2.21-.77,1.69,1.69,0,0,0,.39-1.16c0-1.25-.87-1.44-2.79-1.93-2.7-.57-4.92-1.15-4.92-3.75,0-2.31,2-3.86,5-3.86,1.64,0,3.86.49,4.63,1.93a4.47,4.47,0,0,1,.29,1.83h-2.51c.1-1.93-1.64-2-2.5-2-.39,0-2.61,0-2.61,1.83,0,1.15,1.16,1.44,1.84,1.64,3.56.86,4.33,1.06,5.1,1.73a3.25,3.25,0,0,1,1,2.31,3.69,3.69,0,0,1-1.73,3.18,7.5,7.5,0,0,1-3.85.87c-2.6,0-5.11-1.06-5-4h2.69Z" style="fill:#3c3c3b"/><path d="M194.13,145.79c0-.77-.1-1.55-.1-2.41h3.66l.1,1.64a4.49,4.49,0,0,1,4.05-1.93c3,0,3.85,1.83,4,2.41a4.25,4.25,0,0,1,4.15-2.32,4.34,4.34,0,0,1,3.95,2,7.31,7.31,0,0,1,.67,3.76v7.12H210.8v-7.41c0-1.35-.2-2.89-2.22-2.89-2.31,0-2.31,2.12-2.31,4v6.35h-3.86v-7.51c0-1,0-2.79-2.11-2.79-2.41,0-2.41,2-2.41,2.89v7.41H194v-10.3Z" style="fill:#3c3c3b"/><path d="M220.62,150.7c0,.87,0,3.37,2.6,3.37a2.05,2.05,0,0,0,2.22-1.73h3.47a4.74,4.74,0,0,1-1.25,2.79,6.42,6.42,0,0,1-4.53,1.45A6.6,6.6,0,0,1,218.6,155a6.88,6.88,0,0,1-1.64-4.91c0-2,.48-4.53,2.7-6a6.28,6.28,0,0,1,3.66-1.06,5.46,5.46,0,0,1,5.2,3.08,8.7,8.7,0,0,1,.77,4.63h-8.67Zm4.92-2.31c0-.58-.1-2.8-2.22-2.8-1.64,0-2.31,1.35-2.41,2.8Z" style="fill:#3c3c3b"/><path d="M240.47,138h3.85v16.09c0,.77.1,1.54.1,2h-3.85l-.1-1.83a3.05,3.05,0,0,1-1.35,1.45,4.84,4.84,0,0,1-2.5.67c-3.47,0-5.5-2.31-5.5-6.26,0-4.14,2.32-6.84,5.69-6.84a4.25,4.25,0,0,1,3.66,1.74Zm-2.89,16a2.81,2.81,0,0,0,2.41-1.45,6.23,6.23,0,0,0,.58-3c0-2.5-1.16-3.85-2.8-3.85-2.5,0-2.79,3-2.79,4.24,0,2.12.67,4,2.6,4" style="fill:#3c3c3b"/><path d="M247.41,138h4v3.28h-4Zm.19,5.4h3.76v12.71H247.6Z" style="fill:#3c3c3b"/><polygon points="253.86 152.82 260.41 145.88 254.05 145.88 254.05 143.38 264.65 143.38 264.65 146.65 258.1 153.49 264.94 153.49 264.94 156.09 253.86 156.09 253.86 152.82" style="fill:#3c3c3b"/><path d="M267.45,138h4v3.28h-4Zm.09,5.4h3.76v12.71h-3.76Z" style="fill:#3c3c3b"/><path d="M274.77,145.69c0-.1,0-1.45-.1-2.31h3.66l.1,1.92a4.51,4.51,0,0,1,4.24-2.21,4,4,0,0,1,3.95,2.41,9.82,9.82,0,0,1,.38,3.75v6.84h-3.85v-7.9a3.05,3.05,0,0,0-.19-1.34,1.92,1.92,0,0,0-1.83-1.06,2.57,2.57,0,0,0-2,1,3.65,3.65,0,0,0-.48,1.93v7.41h-3.85v-10.4Z" style="fill:#3c3c3b"/><polygon points="72.45 100.79 72.35 100.99 72.55 100.99 72.45 100.79"/><polygon points="145.19 100.99 177.94 100.99 177.94 99.73 144.8 99.73 144.32 100.22 145.19 100.99"/><polygon points="107.52 99.73 73.61 99.73 73.32 100.02 74.28 100.99 107.52 100.99 107.52 99.73"/><polygon points="71.39 99.73 35.16 99.73 35.16 100.99 70.62 100.99 71.58 100.02 71.39 99.73"/><rect x="179.1" y="99.73" width="13.78" height="1.16"/><polygon points="143.94 135.09 177.37 135.09 177.85 134.61 177.17 133.84 143.94 133.84 143.94 135.09"/><polygon points="38.63 133.84 37.48 135.09 73.51 135.09 73.51 133.84 38.63 133.84"/><polygon points="142.68 133.84 109.93 133.84 108.96 134.8 109.25 135.09 142.68 135.09 142.68 133.84"/><polygon points="179.2 134.13 179.1 134.22 179.1 134.51 179.39 134.8 179.1 135 179.1 135.09 191.63 135.09 191.63 133.84 179.1 133.84 179.1 134.13 179.2 134.13"/><polygon points="0 133.84 0 135.09 35.74 135.09 36.9 133.84 0 133.84"/><polygon points="293.84 168.23 179.1 168.23 179.1 168.81 177.94 168.81 177.94 168.23 145.09 168.23 144.13 169.2 144.42 169.39 293.84 169.39 293.84 168.23"/><polygon points="35.65 168.23 35.65 169.39 71.78 169.39 73.03 168.23 35.65 168.23"/><polygon points="74.67 168.23 73.51 169.39 107.52 169.39 107.52 168.23 74.67 168.23"/><polygon points="72.35 100.99 72.45 100.79 71.58 100.02 70.62 100.99 36.9 133.84 35.74 135.09 0 169.87 0.87 170.74 37.48 135.09 38.63 133.84 72.35 100.99"/><polygon points="116.38 57.92 115.51 57.05 108.77 63.7 108.77 65.44 116.38 57.92"/><polygon points="73.32 100.02 73.61 99.73 107.52 66.59 107.52 64.86 72.45 99.16 73.32 100.02"/><polygon points="108.77 171.8 108.77 165.92 108.77 136.25 108.1 135.67 107.52 136.15 107.52 168.23 107.52 169.39 107.52 203.3 108.77 202.05 108.77 171.8"/><polygon points="107.52 99.73 107.52 100.99 107.52 133.45 108.1 133.94 108.77 133.26 108.77 103.3 108.77 97.42 108.77 67.08 107.52 65.92 108.39 65.05 108.77 65.44 108.77 65.44 108.77 63.7 107.52 64.86 107.52 66.59 107.52 99.73"/><polygon points="107.52 215.15 108.77 215.15 108.77 203.78 107.52 204.94 107.52 215.15"/><polygon points="143.94 98.96 143.94 65.92 142.68 65.92 142.68 98.58 143.55 99.35 143.94 98.96"/><polygon points="143.94 167.75 143.94 135.09 143.94 133.84 143.94 101.47 143.55 100.99 142.68 101.76 142.68 133.84 142.68 135.09 142.68 167.75 143.26 168.33 143.94 167.75"/><polygon points="142.68 170.55 142.68 204.46 143.94 204.46 143.94 170.64 143.26 170.06 142.68 170.55"/><polygon points="177.94 132.97 179.1 134.13 179.1 133.84 179.1 100.99 179.1 99.73 179.1 34.03 177.94 34.03 177.94 99.73 177.94 100.99 177.94 132.97"/><polygon points="179.1 134.22 178.91 134.42 179.1 134.51 179.1 134.22"/><polygon points="177.94 136.25 177.94 168.23 177.94 168.81 179.1 168.81 179.1 168.23 179.1 135.09 179.1 135 177.94 136.25"/><path d="M140.85,165.92v0Z" style="fill:#ffe50b"/><polygon points="179.1 135 179.39 134.8 179.1 134.51 178.91 134.42 178.33 135 177.85 134.61 177.37 135.09 143.94 167.75 143.26 168.33 144.13 169.2 145.09 168.23 177.94 136.25 179.1 135"/><polyline points="108.77 202.05 107.52 203.3 96.82 213.71 97.69 214.57 107.52 204.94 108.77 203.78 142.68 170.55 143.26 170.06 142.39 169.2"/><polyline points="142.39 169.2 143.26 170.06 143.94 170.64 178.62 204.46 179.49 203.69 144.42 169.39 144.13 169.2 143.26 168.33 142.68 167.75 140.85 166.02 140.85 165.92 109.25 135.09 108.96 134.8 108.1 135.67 108.77 136.25"/><polyline points="107.23 134.8 108.1 133.94 107.52 133.45 74.28 100.99 73.32 100.02 72.45 99.16 36.03 63.61 35.16 64.47 71.39 99.73 71.58 100.02 72.45 100.79 72.55 100.99"/><polygon points="144.32 100.22 144.8 99.73 169.66 75.46 168.79 74.59 143.94 98.96 143.55 99.35 144.32 100.22"/><polyline points="73.03 168.23 71.78 169.39 25.82 214.28 26.69 215.15 73.51 169.39 74.67 168.23 107.52 136.15 108.1 135.67 108.96 134.8 109.93 133.84 142.68 101.76 143.55 100.99 142.68 100.22"/><polyline points="108.77 133.26 108.1 133.94 107.23 134.8"/><polyline points="142.68 100.22 143.55 100.99 143.94 101.47 177.17 133.84 177.85 134.61 178.33 135 178.91 134.42 179.1 134.22 179.2 134.13 179.1 134.13 177.94 132.97 145.19 100.99 144.32 100.22 143.55 99.35 142.68 98.58 108.77 65.44 108.39 65.05 107.52 65.92 108.77 67.08"/><polygon points="108.77 171.8 139.7 171.8 142.39 169.2 139.12 165.92 108.77 165.92 108.77 171.8" style="fill:#ffe50b"/><polygon points="107.23 134.8 104.44 132.01 73.51 132.01 73.51 133.84 73.51 135.09 73.51 137.98 103.95 137.98 107.23 134.8" style="fill:#eb586a"/><polygon points="139.79 97.42 108.77 97.42 108.77 103.3 139.41 103.3 142.68 100.22 139.79 97.42" style="fill:#706f6f"/><path d="M1.27,11.45V0H9.55V1.35H2.78V4.86H9.12V6.2H2.78v3.9h7v1.35Z" style="fill:#3c3c3b"/><path d="M11.73,1.62V0h1.41V1.62Zm0,9.83V3.16h1.41v8.29Z" style="fill:#3c3c3b"/><path d="M15.28,11.45V3.16h1.27V4.34A3,3,0,0,1,19.19,3a3.47,3.47,0,0,1,1.38.27,2.11,2.11,0,0,1,.94.71A2.75,2.75,0,0,1,22,5,8.68,8.68,0,0,1,22,6.35v5.1h-1.4v-5a3.77,3.77,0,0,0-.17-1.29,1.36,1.36,0,0,0-.58-.68,1.83,1.83,0,0,0-1-.25,2.27,2.27,0,0,0-1.55.57,2.79,2.79,0,0,0-.65,2.16v4.53Z" style="fill:#3c3c3b"/><path d="M29.86,8.78,31.31,9a3.55,3.55,0,0,1-1.27,2,3.82,3.82,0,0,1-2.38.7,3.77,3.77,0,0,1-2.88-1.12,4.39,4.39,0,0,1-1.07-3.14,4.61,4.61,0,0,1,1.08-3.26A3.65,3.65,0,0,1,27.59,3,3.54,3.54,0,0,1,30.3,4.1a4.49,4.49,0,0,1,1.06,3.19c0,.08,0,.21,0,.37H25.16a3.21,3.21,0,0,0,.78,2.1,2.3,2.3,0,0,0,1.73.72,2.13,2.13,0,0,0,1.32-.4A2.62,2.62,0,0,0,29.86,8.78ZM25.24,6.51h4.64a2.8,2.8,0,0,0-.54-1.57,2.16,2.16,0,0,0-1.74-.82A2.26,2.26,0,0,0,26,4.77,2.6,2.6,0,0,0,25.24,6.51Z" style="fill:#3c3c3b"/><path d="M38,11.45V0h1.52V11.45Z" style="fill:#3c3c3b"/><path d="M42,11.45V3.16h1.26V4.34A3,3,0,0,1,45.88,3a3.42,3.42,0,0,1,1.37.27,2.15,2.15,0,0,1,1,.71,2.74,2.74,0,0,1,.43,1,8.36,8.36,0,0,1,.08,1.37v5.1H47.3v-5a3.82,3.82,0,0,0-.16-1.29,1.36,1.36,0,0,0-.58-.68,1.86,1.86,0,0,0-1-.25A2.27,2.27,0,0,0,44,4.76a2.79,2.79,0,0,0-.65,2.16v4.53Z" style="fill:#3c3c3b"/><path d="M50.88,1.62V0h1.4V1.62Zm0,9.83V3.16h1.4v8.29Z" style="fill:#3c3c3b"/><path d="M57.49,10.2l.21,1.24a5.47,5.47,0,0,1-1.07.12,2.39,2.39,0,0,1-1.18-.24,1.32,1.32,0,0,1-.6-.64A5.14,5.14,0,0,1,54.68,9V4.25h-1V3.16h1V1.1l1.4-.84v2.9h1.41V4.25H56.08V9.1a2.56,2.56,0,0,0,.07.78.62.62,0,0,0,.24.27,1,1,0,0,0,.49.1A5.66,5.66,0,0,0,57.49,10.2Z" style="fill:#3c3c3b"/><path d="M58.88,1.62V0h1.4V1.62Zm0,9.83V3.16h1.4v8.29Z" style="fill:#3c3c3b"/><path d="M67.84,10.43a5.43,5.43,0,0,1-1.51.94,4.39,4.39,0,0,1-1.55.27,3,3,0,0,1-2.1-.67A2.18,2.18,0,0,1,62,9.27a2.35,2.35,0,0,1,.27-1.12A2.48,2.48,0,0,1,63,7.34a3.72,3.72,0,0,1,1-.46,11.25,11.25,0,0,1,1.25-.21,12.35,12.35,0,0,0,2.51-.48c0-.19,0-.32,0-.37a1.57,1.57,0,0,0-.4-1.21,2.35,2.35,0,0,0-1.6-.48,2.51,2.51,0,0,0-1.47.35,2.13,2.13,0,0,0-.7,1.23l-1.37-.19A3.43,3.43,0,0,1,62.8,4.1a2.76,2.76,0,0,1,1.25-.84A5.67,5.67,0,0,1,65.93,3a5,5,0,0,1,1.73.25,2.33,2.33,0,0,1,1,.63,2.15,2.15,0,0,1,.44.95,7.67,7.67,0,0,1,.07,1.3V8a20,20,0,0,0,.09,2.48,3,3,0,0,0,.36,1H68.12A2.83,2.83,0,0,1,67.84,10.43Zm-.12-3.14a10.52,10.52,0,0,1-2.3.53,5.14,5.14,0,0,0-1.22.28,1.28,1.28,0,0,0-.56.46,1.25,1.25,0,0,0,.23,1.6,1.83,1.83,0,0,0,1.25.38,2.85,2.85,0,0,0,1.44-.36,2.18,2.18,0,0,0,.93-1,3.43,3.43,0,0,0,.23-1.41Z" style="fill:#3c3c3b"/><path d="M74.39,10.2l.2,1.24a5.37,5.37,0,0,1-1.06.12,2.46,2.46,0,0,1-1.19-.24,1.3,1.3,0,0,1-.59-.64A5.14,5.14,0,0,1,71.58,9V4.25h-1V3.16h1V1.1L73,.26v2.9h1.41V4.25H73V9.1a2.56,2.56,0,0,0,.07.78.62.62,0,0,0,.24.27.9.9,0,0,0,.48.1A5.62,5.62,0,0,0,74.39,10.2Z" style="fill:#3c3c3b"/><path d="M75.77,1.62V0h1.41V1.62Zm0,9.83V3.16h1.41v8.29Z" style="fill:#3c3c3b"/><path d="M81.63,11.45,78.47,3.16H80l1.78,5c.2.54.37,1.1.54,1.68.12-.44.29-1,.52-1.58l1.84-5.06h1.45l-3.14,8.29Z" style="fill:#3c3c3b"/><path d="M93,8.78,94.45,9a3.55,3.55,0,0,1-1.27,2,3.82,3.82,0,0,1-2.38.7,3.77,3.77,0,0,1-2.88-1.12,4.39,4.39,0,0,1-1.07-3.14,4.61,4.61,0,0,1,1.08-3.26A3.65,3.65,0,0,1,90.73,3,3.58,3.58,0,0,1,93.45,4.1a4.53,4.53,0,0,1,1,3.19c0,.08,0,.21,0,.37H88.3a3.21,3.21,0,0,0,.78,2.1,2.3,2.3,0,0,0,1.73.72,2.13,2.13,0,0,0,1.32-.4A2.62,2.62,0,0,0,93,8.78ZM88.38,6.51H93a2.8,2.8,0,0,0-.54-1.57,2.14,2.14,0,0,0-1.74-.82,2.26,2.26,0,0,0-1.63.65A2.6,2.6,0,0,0,88.38,6.51Z" style="fill:#3c3c3b"/><path d="M103,11.45,99.81,3.16h1.49l1.78,5c.19.54.37,1.1.53,1.68.12-.44.3-1,.52-1.58L106,3.16h1.44l-3.14,8.29Z" style="fill:#3c3c3b"/><path d="M108.14,7.3a4.29,4.29,0,0,1,1.28-3.41A3.89,3.89,0,0,1,112,3a3.73,3.73,0,0,1,2.8,1.12,4.29,4.29,0,0,1,1.08,3.1,5.48,5.48,0,0,1-.48,2.52A3.4,3.4,0,0,1,114,11.13a4.11,4.11,0,0,1-2,.51,3.73,3.73,0,0,1-2.82-1.12A4.47,4.47,0,0,1,108.14,7.3Zm1.45,0a3.55,3.55,0,0,0,.69,2.39,2.32,2.32,0,0,0,3.49,0,3.58,3.58,0,0,0,.7-2.43,3.38,3.38,0,0,0-.7-2.33,2.31,2.31,0,0,0-3.49,0A3.54,3.54,0,0,0,109.59,7.3Z" style="fill:#3c3c3b"/><path d="M117.56,11.45V3.16h1.27V4.34A3,3,0,0,1,121.47,3a3.47,3.47,0,0,1,1.38.27,2.11,2.11,0,0,1,.94.71,2.75,2.75,0,0,1,.44,1,8.68,8.68,0,0,1,.07,1.37v5.1h-1.4v-5a3.77,3.77,0,0,0-.17-1.29,1.32,1.32,0,0,0-.58-.68,1.83,1.83,0,0,0-1-.25,2.28,2.28,0,0,0-1.55.57A2.83,2.83,0,0,0,119,6.92v4.53Z" style="fill:#3c3c3b"/></g></g></svg>