<?xml version="1.0" encoding="utf-8"?>
<!-- Generator: Adobe Illustrator 24.1.2, SVG Export Plug-In . SVG Version: 6.00 Build 0)  -->
<svg version="1.1" id="Ebene_1" xmlns="http://www.w3.org/2000/svg" xmlns:xlink="http://www.w3.org/1999/xlink" x="0px" y="0px"
	 viewBox="0 0 351.3 218.8" style="enable-background:new 0 0 351.3 218.8;" xml:space="preserve">
<style type="text/css">
	.st0{clip-path:url(#SVGID_2_);fill:#3C3C3B;}
	.st1{clip-path:url(#SVGID_2_);}
	.st2{clip-path:url(#SVGID_2_);fill:#FFE50B;}
	.st3{clip-path:url(#SVGID_2_);fill:#EB586A;}
	.st4{clip-path:url(#SVGID_2_);fill:#706F6F;}
</style>
<g>
	<defs>
		<rect id="SVGID_1_" x="-10.8" y="29.9" width="373" height="223"/>
	</defs>
	<clipPath id="SVGID_2_">
		<use xlink:href="#SVGID_1_"  style="overflow:visible;"/>
	</clipPath>
	<path class="st0" d="M204.9,80l0-1.5h2.5l0,2.1c0.3-0.5,1.2-2.4,4.3-2.4c1.2,0,4.8,0.4,4.8,4.5v8.9H214v-8.3c0-0.9-0.1-1.6-0.7-2.2
		c-0.6-0.6-1.5-0.9-2.4-0.9c-1.8,0-3.5,1.3-3.5,3.9v7.5h-2.5V80z"/>
	<path class="st0" d="M221.9,85.4c-0.1,2.7,1.1,4.7,3.8,4.7c1.6,0,2.9-0.8,3.1-2.7h2.5c-0.1,0.7-0.2,1.7-1.1,2.7
		c-0.6,0.6-1.9,1.7-4.6,1.7c-4.2,0-6.2-2.5-6.2-6.7c0-2.6,0.5-4.7,2.6-6.1c1.3-0.9,2.9-1,3.7-1c6,0,5.9,5.2,5.8,7.3H221.9z
		 M229,83.7c0-1.2-0.2-3.9-3.3-3.9c-1.6,0-3.6,1-3.7,3.9H229z"/>
	<path class="st0" d="M233.2,78.4h2.4v-2.7l2.5-0.8v3.5h3v1.8h-3V88c0,0.6,0,1.7,1.8,1.7c0.5,0,1-0.1,1.2-0.1v1.9
		c-0.5,0.1-1.2,0.2-2.1,0.2c-2.3,0-3.4-0.7-3.4-2.8v-8.7h-2.4V78.4z"/>
	<polygon class="st0" points="242.8,89 250,80.3 243.2,80.3 243.2,78.5 252.8,78.5 252.8,80.5 245.4,89.6 252.8,89.6 252.8,91.5 
		242.8,91.5 	"/>
	<polygon class="st0" points="256.9,78.5 260.1,88.9 263.5,78.5 266.8,78.5 269.8,88.8 273.2,78.5 275.8,78.5 271.1,91.5 
		268.2,91.5 265,80.8 261.6,91.5 258.6,91.5 254.2,78.5 	"/>
	<path class="st0" d="M279.9,85.4c-0.1,2.7,1.1,4.7,3.8,4.7c1.6,0,2.9-0.8,3.1-2.7h2.5c-0.1,0.7-0.2,1.7-1.1,2.7
		c-0.6,0.6-1.9,1.7-4.6,1.7c-4.2,0-6.2-2.5-6.2-6.7c0-2.6,0.5-4.7,2.6-6.1c1.3-0.9,2.9-1,3.7-1c6,0,5.9,5.2,5.8,7.3H279.9z
		 M287,83.7c0-1.2-0.2-3.9-3.3-3.9c-1.6,0-3.6,1-3.7,3.9H287z"/>
	<path class="st0" d="M293.3,81.1c0-0.9-0.1-1.8-0.1-2.7h2.5l0.1,2.5c0.5-1.8,2.1-2.4,3.2-2.6c0.8-0.1,1.3-0.1,1.7-0.1v2.4
		c-0.1-0.1-0.3-0.1-0.5-0.1c-0.2,0-0.4,0-0.7,0c-3,0-3.6,1.7-3.6,4v7h-2.5V81.1z"/>
	<polygon class="st0" points="303.4,72.6 305.9,72.6 305.9,83.8 310.9,78.5 314.2,78.5 308.5,84 314.5,91.5 311.2,91.5 305.9,84.5 
		305.9,91.5 303.4,91.5 	"/>
	<path class="st0" d="M207.1,111v8.4c0,1.3,0.3,2.9,2.8,2.9c1.3,0,2.4-0.4,3.1-1.5c0.6-0.8,0.6-1.8,0.6-2.4V111h2.6v10.6
		c0,0.3,0.1,1.7,0.1,2.4h-2.6l-0.1-2.2c-0.5,0.9-1.4,2.4-4.3,2.4c-3.3,0-4.8-1.8-4.8-4.4V111H207.1z"/>
	<path class="st0" d="M221.2,112.5l0-1.5h2.5l0,2.1c0.3-0.5,1.2-2.4,4.3-2.4c1.2,0,4.8,0.4,4.8,4.5v8.9h-2.6v-8.3
		c0-0.9-0.1-1.6-0.7-2.2c-0.6-0.6-1.5-0.9-2.4-0.9c-1.8,0-3.5,1.3-3.5,3.9v7.5h-2.5V112.5z"/>
	<path class="st0" d="M236.9,105.3h3v2.7h-3V105.3z M237.1,111h2.5v13.1h-2.5V111z"/>
	<polygon class="st0" points="243,111 245.8,111 250.1,121.4 254.2,111 257,111 251.1,124.1 248.6,124.1 	"/>
	<path class="st0" d="M261.4,118c-0.1,2.7,1.1,4.7,3.8,4.7c1.6,0,2.9-0.8,3.1-2.7h2.5c-0.1,0.7-0.2,1.7-1.1,2.7
		c-0.6,0.6-1.9,1.7-4.6,1.7c-4.2,0-6.2-2.6-6.2-6.7c0-2.6,0.5-4.7,2.6-6.1c1.3-0.9,2.9-1,3.6-1c6,0,5.9,5.2,5.8,7.3H261.4z
		 M268.4,116.3c0-1.3-0.2-3.9-3.3-3.9c-1.6,0-3.6,1-3.7,3.9H268.4z"/>
	<path class="st0" d="M274.8,113.7c0-0.9-0.1-1.8-0.1-2.7h2.5l0.1,2.5c0.5-1.8,2.1-2.4,3.2-2.6c0.7-0.1,1.3-0.1,1.7-0.1v2.4
		c-0.1-0.1-0.3-0.1-0.5-0.1c-0.2,0-0.4,0-0.7,0c-3,0-3.7,1.7-3.7,4v7h-2.5V113.7z"/>
	<path class="st0" d="M287,120.2c0,1,0.5,2.4,2.9,2.4c1,0,1.8-0.2,2.3-0.8c0.3-0.3,0.4-0.8,0.4-1.2c0-1.3-0.9-1.5-2.9-2
		c-2.8-0.6-5.1-1.2-5.1-3.9c0-2.4,2.1-4,5.2-4c1.7,0,4,0.5,4.8,2c0.3,0.7,0.3,1.4,0.3,1.9h-2.6c0.1-2-1.7-2.1-2.6-2.1
		c-0.4,0-2.7,0-2.7,1.9c0,1.2,1.2,1.5,1.9,1.7c3.7,0.9,4.5,1.1,5.3,1.8c0.7,0.7,1,1.6,1,2.4c0,1.5-0.8,2.7-1.8,3.3
		c-1.2,0.7-2.6,0.9-4,0.9c-2.7,0-5.3-1.1-5.2-4.2H287z"/>
	<path class="st0" d="M298.6,105.3h3v2.7h-3V105.3z M298.9,111h2.5v13.1h-2.5V111z"/>
	<path class="st0" d="M304.2,110.9h2.4v-2.7l2.5-0.8v3.5h3v1.8h-3v7.8c0,0.6,0,1.7,1.8,1.7c0.5,0,1-0.1,1.2-0.1v1.9
		c-0.5,0.1-1.2,0.2-2.1,0.2c-2.3,0-3.4-0.7-3.4-2.8v-8.7h-2.4V110.9z"/>
	<path class="st0" d="M323.3,124.1c-0.2-0.7-0.2-1.3-0.2-2c-1.2,2.2-3,2.4-4.1,2.4c-3.1,0-4.7-1.7-4.7-3.9c0-1,0.4-2.7,2.3-3.8
		c1.4-0.8,3.6-0.9,4.6-0.9c0.6,0,1,0,1.8,0.1c0-1.6,0-2.3-0.5-2.9c-0.5-0.6-1.6-0.9-2.3-0.9c-2.5,0-2.7,1.7-2.7,2.2H315
		c0.1-0.7,0.2-1.6,0.9-2.5c1-1.1,2.9-1.4,4.3-1.4c1.9,0,4,0.6,4.7,1.9c0.4,0.8,0.5,1.4,0.5,2l-0.1,6.2c0,0.2,0,2,0.2,3.3H323.3z
		 M316.4,105.3h2.4v2.7h-2.4V105.3z M321.6,117.6c-1,0-4.8,0-4.8,2.7c0,0.8,0.5,2.3,2.8,2.3c1.3,0,2.2-0.5,2.8-1.4
		c0.6-0.9,0.6-1.6,0.6-3.4C322.6,117.7,322.2,117.6,321.6,117.6 M321.5,105.3h2.5v2.7h-2.5V105.3z"/>
	<path class="st0" d="M327.9,110.9h2.4v-2.7l2.5-0.8v3.5h3v1.8h-3v7.8c0,0.6,0,1.7,1.8,1.7c0.5,0,1-0.1,1.2-0.1v1.9
		c-0.5,0.1-1.2,0.2-2.1,0.2c-2.3,0-3.4-0.7-3.4-2.8v-8.7h-2.4V110.9z"/>
	<path class="st0" d="M340.3,120.2c0,1,0.5,2.4,2.9,2.4c1,0,1.8-0.2,2.3-0.8c0.3-0.3,0.4-0.8,0.4-1.2c0-1.3-0.9-1.5-2.9-2
		c-2.8-0.6-5.1-1.2-5.1-3.9c0-2.4,2.1-4,5.2-4c1.7,0,4,0.5,4.8,2c0.3,0.7,0.3,1.4,0.3,1.9h-2.6c0.1-2-1.7-2.1-2.6-2.1
		c-0.4,0-2.7,0-2.7,1.9c0,1.2,1.2,1.5,1.9,1.7c3.7,0.9,4.5,1.1,5.3,1.8c0.7,0.7,1,1.6,1,2.4c0,1.5-0.8,2.7-1.8,3.3
		c-1.2,0.7-2.6,0.9-4,0.9c-2.7,0-5.3-1.1-5.2-4.2H340.3z"/>
	<path class="st0" d="M204.3,145.9c0-0.8-0.1-1.6-0.1-2.5h3.8l0.1,1.7c0.4-0.6,1.5-2,4.2-2c3.1,0,4,1.9,4.2,2.5
		c1.1-2.1,2.9-2.4,4.3-2.4c2.7,0,3.8,1.6,4.1,2.1c0.7,1.1,0.7,2.7,0.7,3.9v7.4h-4v-7.7c0-1.4-0.2-3-2.3-3c-2.4,0-2.4,2.2-2.4,4.1
		v6.6h-4v-7.8c0-1,0-2.9-2.2-2.9c-2.5,0-2.5,2.1-2.5,3v7.7h-4V145.9z"/>
	<path class="st0" d="M231.8,151c0,0.9,0,3.5,2.7,3.5c1,0,2-0.4,2.3-1.8h3.6c-0.1,0.6-0.2,1.7-1.3,2.9c-1,1-2.7,1.5-4.7,1.5
		c-1.1,0-3.3-0.2-4.7-1.6c-1.2-1.3-1.7-3-1.7-5.1c0-2.1,0.5-4.7,2.8-6.2c1-0.7,2.3-1.1,3.8-1.1c1.9,0,4.2,0.7,5.4,3.2
		c0.9,1.8,0.9,3.7,0.8,4.8H231.8z M236.9,148.6c0-0.6-0.1-2.9-2.3-2.9c-1.7,0-2.4,1.4-2.5,2.9H236.9z"/>
	<path class="st0" d="M252.4,137.8h4v16.7c0,0.8,0.1,1.6,0.1,2.1h-4l-0.1-1.9c-0.3,0.5-0.5,1-1.4,1.5c-1,0.6-2,0.7-2.6,0.7
		c-3.6,0-5.7-2.4-5.7-6.5c0-4.3,2.4-7.1,5.9-7.1c2.4,0,3.4,1.3,3.8,1.8V137.8z M249.4,154.4c1.1,0,2.1-0.7,2.5-1.5
		c0.6-1.1,0.6-2.4,0.6-3.1c0-2.6-1.2-4-2.9-4c-2.6,0-2.9,3.1-2.9,4.4C246.7,152.4,247.4,154.4,249.4,154.4"/>
	<path class="st0" d="M259.6,137.8h4.2v3.4h-4.2V137.8z M259.8,143.4h3.9v13.2h-3.9V143.4z"/>
	<polygon class="st0" points="266.3,153.2 273.1,146 266.5,146 266.5,143.4 277.5,143.4 277.5,146.8 270.7,153.9 277.8,153.9 
		277.8,156.6 266.3,156.6 	"/>
	<path class="st0" d="M280.4,137.8h4.2v3.4h-4.2V137.8z M280.5,143.4h3.9v13.2h-3.9V143.4z"/>
	<path class="st0" d="M288,145.8c0-0.1,0-1.5-0.1-2.4h3.8l0.1,2c0.4-0.6,1.4-2.3,4.4-2.3c2.6,0,3.8,1.6,4.1,2.5
		c0.3,0.8,0.4,1.5,0.4,3.9v7.1h-4v-8.2c0-0.5,0-1-0.2-1.4c-0.3-0.6-0.9-1.1-1.9-1.1c-0.9,0-1.6,0.4-2.1,1c-0.2,0.3-0.5,1-0.5,2v7.7
		h-4V145.8z"/>
	<polygon class="st1" points="78,99.2 77.9,99.4 78.1,99.4 	"/>
	<polygon class="st1" points="153.5,99.4 187.5,99.4 187.5,98.1 153.1,98.1 152.6,98.6 	"/>
	<polygon class="st1" points="114.4,98.1 79.2,98.1 78.9,98.4 79.9,99.4 114.4,99.4 	"/>
	<polygon class="st1" points="76.9,98.1 39.3,98.1 39.3,99.4 76.1,99.4 77.1,98.4 	"/>
	<rect x="188.7" y="98.1" class="st1" width="14.3" height="1.2"/>
	<polygon class="st1" points="152.2,134.8 186.9,134.8 187.4,134.3 186.7,133.5 152.2,133.5 	"/>
	<polygon class="st1" points="42.9,133.5 41.7,134.8 79.1,134.8 79.1,133.5 	"/>
	<polygon class="st1" points="150.9,133.5 116.9,133.5 115.9,134.5 116.2,134.8 150.9,134.8 	"/>
	<polygon class="st1" points="188.8,133.8 188.7,133.9 188.7,134.2 189,134.5 188.7,134.7 188.7,134.8 201.7,134.8 201.7,133.5 
		188.7,133.5 188.7,133.8 	"/>
	<polygon class="st1" points="2.8,133.5 2.8,134.8 39.9,134.8 41.1,133.5 	"/>
	<polygon class="st1" points="307.8,169.2 188.7,169.2 188.7,169.8 187.5,169.8 187.5,169.2 153.4,169.2 152.4,170.2 152.7,170.4 
		307.8,170.4 	"/>
	<polygon class="st1" points="39.8,169.2 39.8,170.4 77.3,170.4 78.6,169.2 	"/>
	<polygon class="st1" points="80.3,169.2 79.1,170.4 114.4,170.4 114.4,169.2 	"/>
	<polygon class="st1" points="77.9,99.4 78,99.2 77.1,98.4 76.1,99.4 41.1,133.5 39.9,134.8 2.8,170.9 3.7,171.8 41.7,134.8 
		42.9,133.5 	"/>
	<polygon class="st1" points="123.6,54.7 122.7,53.8 115.7,60.7 115.7,62.5 	"/>
	<polygon class="st1" points="78.9,98.4 79.2,98.1 114.4,63.7 114.4,61.9 78,97.5 	"/>
	<polygon class="st1" points="115.7,172.9 115.7,166.8 115.7,136 115,135.4 114.4,135.9 114.4,169.2 114.4,170.4 114.4,205.6 
		115.7,204.3 	"/>
	<polygon class="st1" points="114.4,98.1 114.4,99.4 114.4,133.1 115,133.6 115.7,132.9 115.7,101.8 115.7,95.7 115.7,64.2 
		114.4,63 115.3,62.1 115.7,62.5 115.7,62.5 115.7,60.7 114.4,61.9 114.4,63.7 	"/>
	<polygon class="st1" points="114.4,217.9 115.7,217.9 115.7,206.1 114.4,207.3 	"/>
	<polygon class="st1" points="152.2,97.3 152.2,63 150.9,63 150.9,96.9 151.8,97.7 	"/>
	<polygon class="st1" points="152.2,168.7 152.2,134.8 152.2,133.5 152.2,99.9 151.8,99.4 150.9,100.2 150.9,133.5 150.9,134.8 
		150.9,168.7 151.5,169.3 	"/>
	<polygon class="st1" points="150.9,171.6 150.9,206.8 152.2,206.8 152.2,171.7 151.5,171.1 	"/>
	<polygon class="st1" points="187.5,132.6 188.7,133.8 188.7,133.5 188.7,99.4 188.7,98.1 188.7,29.9 187.5,29.9 187.5,98.1 
		187.5,99.4 	"/>
	<polygon class="st1" points="188.7,133.9 188.5,134.1 188.7,134.2 	"/>
	<polygon class="st1" points="187.5,136 187.5,169.2 187.5,169.8 188.7,169.8 188.7,169.2 188.7,134.8 188.7,134.7 	"/>
	<polygon class="st2" points="149,166.8 149,166.9 149,166.8 	"/>
	<polygon class="st1" points="188.7,134.7 189,134.5 188.7,134.2 188.5,134.1 187.9,134.7 187.4,134.3 186.9,134.8 152.2,168.7 
		151.5,169.3 152.4,170.2 153.4,169.2 187.5,136 	"/>
	<polyline class="st1" points="115.7,204.3 114.4,205.6 103.3,216.4 104.2,217.3 114.4,207.3 115.7,206.1 150.9,171.6 151.5,171.1 
		150.6,170.2 	"/>
	<polyline class="st1" points="150.6,170.2 151.5,171.1 152.2,171.7 188.2,206.8 189.1,206 152.7,170.4 152.4,170.2 151.5,169.3 
		150.9,168.7 149,166.9 149,166.8 116.2,134.8 115.9,134.5 115,135.4 115.7,136 	"/>
	<polyline class="st1" points="114.1,134.5 115,133.6 114.4,133.1 79.9,99.4 78.9,98.4 78,97.5 40.2,60.6 39.3,61.5 76.9,98.1 
		77.1,98.4 78,99.2 78.1,99.4 	"/>
	<polygon class="st1" points="152.6,98.6 153.1,98.1 178.9,72.9 178,72 152.2,97.3 151.8,97.7 	"/>
	<polyline class="st1" points="78.6,169.2 77.3,170.4 29.6,217 30.5,217.9 79.1,170.4 80.3,169.2 114.4,135.9 115,135.4 
		115.9,134.5 116.9,133.5 150.9,100.2 151.8,99.4 150.9,98.6 	"/>
	<polyline class="st1" points="115.7,132.9 115,133.6 114.1,134.5 	"/>
	<polyline class="st1" points="150.9,98.6 151.8,99.4 152.2,99.9 186.7,133.5 187.4,134.3 187.9,134.7 188.5,134.1 188.7,133.9 
		188.8,133.8 188.7,133.8 187.5,132.6 153.5,99.4 152.6,98.6 151.8,97.7 150.9,96.9 115.7,62.5 115.3,62.1 114.4,63 115.7,64.2 	"/>
	<polygon class="st2" points="115.7,172.9 147.8,172.9 150.6,170.2 147.2,166.8 115.7,166.8 	"/>
	<polygon class="st3" points="114.1,134.5 111.2,131.6 79.1,131.6 79.1,133.5 79.1,134.8 79.1,137.8 110.7,137.8 	"/>
	<polygon class="st4" points="147.9,95.7 115.7,95.7 115.7,101.8 147.5,101.8 150.9,98.6 	"/>
</g>
</svg>
