<?xml version="1.0" standalone="no"?>
<!DOCTYPE svg PUBLIC "-//W3C//DTD SVG 20010904//EN"
 "http://www.w3.org/TR/2001/REC-SVG-20010904/DTD/svg10.dtd">
<svg version="1.0" xmlns="http://www.w3.org/2000/svg"
 width="1367.000000pt" height="1367.000000pt" viewBox="0 0 1367.000000 1367.000000"
 preserveAspectRatio="xMidYMid meet">
<metadata>
Created by potrace 1.14, written by Peter Selinger 2001-2017
</metadata>
<g transform="translate(0.000000,1367.000000) scale(0.100000,-0.100000)"
fill="#000000" stroke="none">
<path d="M6875 9158 c0 -706 -1 -1291 -3 -1300 -4 -17 -43 -18 -640 -18 l-636
0 474 474 c261 261 476 481 478 489 2 8 -4 17 -13 21 -12 4 -144 -122 -486
-464 -259 -259 -474 -470 -479 -470 -4 0 -7 290 -6 645 l1 645 -25 -3 -25 -4
0 -641 c0 -353 0 -642 -1 -642 -5 0 -1304 1305 -1304 1309 0 4 65 71 144 150
137 136 143 144 128 162 -16 18 -55 -19 -849 -813 l-833 -833 -703 703 c-669
668 -703 701 -720 685 -16 -17 16 -51 680 -715 l698 -698 -698 0 -697 0 0 -25
0 -25 682 0 683 0 -650 -650 -650 -650 -712 0 -713 0 0 -25 0 -25 687 0 688 0
-688 -688 c-656 -656 -687 -689 -670 -705 18 -15 53 18 726 691 l707 707 695
-3 695 -2 0 -58 0 -57 585 1 c322 1 585 0 585 -1 0 -1 -268 -271 -596 -599
l-597 -596 -722 0 c-683 0 -723 -1 -720 -17 2 -10 4 -21 4 -25 1 -4 290 -7
643 -7 354 0 666 -1 694 -1 l52 0 -886 -884 c-773 -773 -884 -887 -872 -901 7
-9 17 -14 22 -13 5 2 413 407 907 901 l898 897 659 1 659 1 0 -669 0 -669
-208 -207 c-171 -171 -206 -211 -196 -223 6 -8 15 -14 19 -14 4 0 91 84 193
187 103 102 187 184 188 182 1 -2 2 -92 3 -199 l1 -195 24 0 24 0 1 226 1 227
651 651 c470 469 653 646 656 634 2 -10 3 -309 3 -665 -1 -357 2 -648 5 -649
3 0 13 -2 23 -4 12 -2 17 3 18 18 0 12 0 314 1 671 l0 649 669 -669 c636 -636
670 -668 686 -651 17 16 -15 50 -657 692 -371 371 -670 675 -665 675 6 0 1304
1 2885 3 2868 2 2875 2 2875 22 0 20 -8 20 -2216 23 l-2217 2 0 655 0 655 241
2 242 3 3 23 3 22 -244 0 -244 0 -1 650 0 650 265 2 266 3 3 23 4 22 -269 0
-269 0 0 1278 c-1 702 -1 1287 -1 1300 -1 16 -7 22 -24 22 l-23 0 1 -1282z
m-2720 -663 l0 -655 -655 0 -655 0 655 655 c360 360 655 655 655 655 0 0 0
-295 0 -655z m1235 -556 c0 -3 -267 -5 -592 -5 l-593 1 -1 598 -1 598 594
-593 c326 -326 593 -596 593 -599z m-1235 -790 l0 -639 -638 638 -637 637 612
5 c337 3 624 4 638 2 l25 -4 0 -639z m2720 21 c0 -346 -3 -630 -6 -630 -3 0
-286 280 -628 623 l-623 622 629 5 c345 3 628 6 628 8 0 1 0 -281 0 -628z
m-3456 6 l614 -614 -564 0 c-310 -1 -579 -1 -596 -1 -31 -1 -33 -3 -33 -36 l0
-35 -672 0 -673 0 650 650 c357 358 652 650 655 650 3 0 281 -276 619 -614z
m3421 -683 c0 -2 -288 -3 -639 -3 l-639 0 0 641 0 640 639 -638 c351 -351 639
-639 639 -640z m-1326 622 l1 -625 -634 0 -635 0 629 629 c347 346 632 627
634 625 3 -2 5 -286 5 -629z m-145 568 c-15 -18 -1113 -1115 -1146 -1146 -20
-17 -20 -12 -20 572 l0 590 590 0 c548 1 588 0 576 -16z m146 -1883 c0 -352
-2 -640 -5 -640 -3 0 -293 288 -645 640 l-640 640 645 0 645 0 0 -640z m707
13 c-345 -346 -635 -634 -644 -641 -14 -12 -16 42 -16 628 l0 640 644 0 644 0
-628 -627z m-2067 -48 l0 -635 -634 0 -635 0 635 635 c348 349 634 635 634
635 0 0 0 -286 0 -635z m635 40 l584 -584 -584 2 -585 2 -1 583 c0 320 0 582
0 582 1 0 264 -263 586 -585z m2085 -53 l0 -627 -634 3 -633 2 628 629 c346
346 631 627 634 625 2 -3 4 -287 5 -632z m-1485 -769 c0 -4 -1179 -1183 -1184
-1183 -1 0 -3 267 -3 593 l0 593 594 0 c326 0 593 -1 593 -3z"/>
<path d="M11213 8813 l-23 -4 0 -360 0 -359 48 0 47 0 -1 130 c0 72 0 130 2
130 1 0 46 -58 99 -130 l97 -130 60 0 c46 0 57 3 51 13 -10 16 -96 130 -103
137 -3 3 -21 25 -40 50 -19 25 -40 51 -47 58 -7 7 -13 19 -13 25 0 7 43 55 95
107 52 52 95 98 95 102 0 11 -118 10 -122 -1 -5 -13 -161 -181 -168 -181 -3 0
-6 91 -5 201 l0 201 -23 9 c-13 5 -24 8 -25 8 -1 -1 -12 -4 -24 -6z"/>
<path d="M8700 8707 c-34 -12 -35 -14 -35 -62 l0 -50 -45 -5 c-42 -5 -45 -7
-45 -35 1 -28 4 -30 45 -35 l44 -5 1 -182 c1 -236 4 -242 119 -248 76 -4 86 0
86 41 0 33 -1 34 -38 34 -71 0 -73 5 -74 190 l-1 165 56 3 57 3 0 34 0 35 -55
0 -55 0 -1 38 c-1 20 -1 49 -1 65 1 30 -6 32 -58 14z"/>
<path d="M7694 8581 c-23 -10 -49 -29 -58 -42 -11 -16 -16 -19 -17 -9 -1 8 -2
20 -4 25 -1 6 -3 16 -3 23 -1 7 -18 12 -46 12 l-43 0 -1 -250 0 -250 48 0 47
0 1 164 c0 136 3 170 18 201 34 72 142 91 198 35 20 -19 21 -33 24 -210 l3
-190 49 0 48 0 -2 198 c-1 186 -2 199 -24 233 -42 69 -158 98 -238 60z"/>
<path d="M8217 8593 c-15 -2 -48 -25 -75 -51 -56 -55 -76 -109 -75 -211 0
-118 41 -198 119 -233 119 -52 268 -10 310 89 23 53 19 60 -30 59 -41 0 -45
-3 -60 -36 -18 -41 -44 -58 -96 -64 -75 -8 -135 44 -146 128 l-7 46 179 2 179
3 -3 65 c-3 68 -27 134 -62 165 -41 37 -135 53 -233 38z m163 -88 c22 -20 43
-77 38 -101 -3 -15 -19 -17 -127 -15 -69 1 -127 3 -129 6 -8 7 28 92 43 105
47 39 135 41 175 5z"/>
<path d="M10370 8588 c-78 -22 -138 -111 -144 -218 -12 -182 70 -292 218 -293
78 0 133 17 173 56 33 31 59 89 48 106 -3 6 -25 9 -48 8 -34 -2 -43 -7 -45
-24 -7 -50 -70 -86 -136 -77 -62 8 -116 74 -116 141 l0 33 178 2 177 3 -1 47
c-3 113 -53 196 -131 217 -46 13 -126 13 -173 -1z m166 -79 c21 -18 33 -42 40
-83 l5 -36 -131 0 -130 0 5 31 c11 59 32 83 91 104 39 13 93 6 120 -16z"/>
<path d="M11030 8593 c-47 -13 -93 -40 -105 -62 l-14 -26 -2 35 c-1 19 -1 38
0 43 1 4 -20 7 -47 6 l-48 -2 1 -246 0 -246 48 -3 47 -3 1 143 c1 152 4 190
20 220 17 31 56 50 109 51 l51 2 -3 44 c-3 45 -16 55 -58 44z"/>
<path d="M8950 8555 c0 -40 -13 -37 158 -37 86 0 92 -1 79 -16 -8 -10 -68 -84
-133 -167 -113 -142 -119 -152 -119 -195 l0 -45 188 -3 187 -2 0 35 0 35 -52
1 c-29 1 -90 0 -135 -1 -46 -1 -83 1 -83 4 0 3 7 14 15 23 8 10 68 87 135 171
108 137 120 156 120 192 l0 40 -180 0 -180 0 0 -35z"/>
<path d="M9365 8568 c4 -13 41 -125 82 -250 l75 -228 58 0 c55 0 58 1 65 28
16 66 118 376 121 367 2 -5 28 -95 58 -200 l54 -190 55 -3 55 -3 15 43 c8 24
47 134 86 245 39 111 71 205 71 208 0 3 -21 5 -47 3 l-47 -3 -62 -190 c-34
-104 -64 -183 -67 -175 -3 8 -20 65 -37 125 -17 61 -40 140 -51 178 l-20 67
-60 0 c-70 0 -58 20 -131 -212 -29 -93 -55 -168 -58 -168 -3 0 -13 26 -22 58
-9 31 -34 116 -55 187 l-40 130 -52 3 c-51 3 -52 2 -46 -20z"/>
<path d="M8716 7560 c-2 -3 -3 -27 -3 -53 l0 -48 56 3 55 3 3 48 c1 26 -1 48
-5 48 -25 4 -104 4 -106 -1z"/>
<path d="M11016 7560 c-2 -3 -3 -26 -3 -52 l0 -48 57 0 56 0 0 52 -1 52 -53 1
c-29 1 -55 -2 -56 -5z"/>
<path d="M11682 7556 c-5 -6 -8 -29 -7 -51 l0 -40 48 -3 47 -3 0 53 0 53 -40
1 c-23 0 -44 -5 -48 -10z"/>
<path d="M11869 7561 c-1 -3 -3 -27 -5 -53 l-4 -48 49 0 50 0 -2 52 -2 51 -42
2 c-24 1 -43 -1 -44 -4z"/>
<path d="M11343 7468 c-32 -11 -33 -13 -33 -64 l0 -54 -45 0 c-45 0 -45 0 -45
-35 0 -35 0 -35 45 -35 l45 0 0 -179 c0 -99 4 -191 10 -205 12 -34 43 -48 109
-51 73 -4 86 3 87 43 0 31 -1 32 -42 32 -66 0 -69 9 -70 196 l-1 163 55 3 c49
3 56 6 57 25 3 36 -8 43 -62 44 l-50 2 1 63 c2 70 0 71 -61 52z"/>
<path d="M12223 7468 c-32 -11 -33 -13 -33 -64 l0 -54 -43 0 c-43 0 -44 0 -44
-35 0 -35 1 -35 44 -35 l43 0 0 -174 c0 -241 8 -257 126 -261 74 -3 86 3 81
41 -3 26 -8 30 -48 34 -31 4 -46 11 -54 26 -8 16 -13 279 -6 327 1 4 25 7 54
7 l53 0 1 35 1 35 -53 0 c-60 0 -62 3 -60 78 2 57 -1 59 -62 40z"/>
<path d="M11760 7355 c-88 -18 -110 -36 -130 -106 -9 -31 -10 -30 48 -33 29
-2 35 2 47 30 18 43 76 63 133 46 43 -13 62 -43 62 -96 l0 -33 -94 -6 c-66 -4
-105 -11 -134 -26 -78 -40 -115 -120 -90 -195 23 -67 74 -98 162 -99 67 0 99
12 134 51 12 14 23 22 23 19 1 -4 3 -11 4 -17 1 -5 3 -17 4 -25 1 -11 13 -15
44 -15 l42 0 -2 204 c-2 235 -7 252 -75 284 -55 26 -109 31 -178 17z m158
-291 c10 -80 -48 -154 -119 -154 -87 0 -129 54 -98 124 17 37 94 63 174 61 36
-2 40 -4 43 -31z"/>
<path d="M8317 7347 c-20 -7 -51 -25 -68 -41 -26 -25 -31 -26 -29 -10 6 49 2
54 -45 54 l-45 0 0 -250 0 -250 48 0 47 0 -2 152 c-1 115 2 164 13 195 27 75
99 106 171 73 54 -24 60 -47 61 -215 0 -77 1 -155 1 -173 l1 -33 47 3 47 3 0
180 c1 184 -6 228 -41 267 -43 48 -135 68 -206 45z"/>
<path d="M9676 7346 c-92 -34 -141 -120 -140 -246 0 -129 38 -206 120 -245 52
-24 158 -24 215 2 51 23 95 73 103 118 5 29 4 30 -38 32 -41 3 -44 1 -60 -36
-22 -47 -49 -63 -110 -65 -74 -1 -136 63 -136 142 l0 32 175 0 c96 0 175 3
176 8 0 4 2 14 4 22 6 31 -16 130 -36 164 -32 54 -79 79 -163 83 -46 2 -85 -2
-110 -11z m167 -76 c25 -20 46 -68 44 -102 0 -16 -13 -18 -129 -18 l-130 0 7
33 c9 41 41 86 69 97 40 17 112 11 139 -10z"/>
<path d="M10323 7348 c-25 -6 -55 -21 -72 -39 -16 -16 -31 -29 -33 -29 -2 0
-3 15 -3 33 0 31 -1 32 -45 35 l-45 3 0 -251 0 -250 48 0 47 0 0 155 c0 214
19 253 126 258 27 1 51 5 55 9 3 4 3 23 1 42 -5 40 -19 46 -79 34z"/>
<path d="M10581 7340 c-103 -47 -121 -178 -31 -235 21 -13 49 -26 62 -29 22
-4 93 -21 130 -32 51 -15 63 -70 23 -109 -48 -49 -167 -24 -180 37 -6 26 -10
28 -51 28 -55 0 -62 -14 -36 -73 15 -35 30 -49 67 -67 79 -38 215 -28 276 22
26 21 49 74 49 113 0 81 -45 118 -180 150 -95 22 -120 37 -120 73 0 47 33 72
94 72 52 0 86 -19 93 -52 5 -26 9 -28 56 -28 l50 0 -6 38 c-8 46 -50 87 -107
102 -56 15 -143 10 -189 -10z"/>
<path d="M12585 7347 c-58 -24 -77 -39 -94 -78 -31 -67 -11 -134 47 -166 20
-11 75 -30 122 -42 118 -30 144 -68 88 -129 -20 -21 -30 -23 -80 -20 -64 5
-98 27 -98 65 0 21 -4 23 -49 23 -32 0 -51 -5 -54 -13 -8 -22 28 -92 59 -114
41 -29 65 -35 144 -35 146 -1 241 99 196 207 -20 46 -57 71 -138 90 -111 27
-147 44 -154 71 -14 55 50 95 130 80 36 -7 56 -24 60 -53 2 -15 12 -18 52 -18
48 0 49 0 46 29 -5 42 -28 72 -70 92 -46 22 -166 28 -207 11z"/>
<path d="M7510 7162 c0 -207 7 -243 56 -281 66 -52 191 -46 252 12 l32 31 0
-37 0 -37 49 0 49 0 -2 248 -1 247 -47 3 -48 3 0 -160 c0 -89 0 -163 0 -166 0
-3 -7 -19 -15 -36 -30 -58 -112 -85 -179 -59 -44 16 -49 42 -50 235 l-1 180
-47 3 -48 3 0 -189z"/>
<path d="M8723 7099 l0 -249 47 0 47 0 -1 248 -1 247 -46 2 -46 2 0 -250z"/>
<path d="M8990 7233 c27 -65 74 -176 104 -248 l55 -130 49 -3 c49 -3 50 -2 65
35 8 21 26 63 40 93 53 118 157 359 157 365 0 3 -23 5 -51 3 -58 -3 -41 24
-144 -238 -31 -80 -58 -146 -59 -147 -1 -2 -38 85 -80 192 l-78 195 -54 0 -53
0 49 -117z"/>
<path d="M11023 7100 l0 -250 48 0 47 0 0 250 0 250 -48 0 -47 0 0 -250z"/>
<path d="M9296 6323 c-3 -4 -6 -65 -6 -136 l0 -130 -23 21 c-25 24 -76 42
-117 42 -93 0 -178 -69 -206 -167 -31 -106 -4 -253 54 -301 36 -28 99 -52 142
-52 50 0 118 29 134 57 9 16 11 14 16 -12 l5 -30 73 0 c39 0 72 3 72 8 0 4 0
164 0 355 l0 349 -69 1 c-38 0 -71 -2 -75 -5z m-63 -314 c41 -19 61 -65 60
-144 -1 -109 -39 -165 -113 -165 -63 0 -100 61 -100 161 0 117 71 186 153 148z"/>
<path d="M9566 6323 c-3 -4 -6 -33 -6 -65 l0 -58 80 0 80 0 0 63 0 63 -74 1
c-41 1 -77 -1 -80 -4z"/>
<path d="M10332 6264 l-3 -64 81 0 80 0 0 64 0 63 -78 1 -78 1 -2 -65z"/>
<path d="M8548 6115 c-51 -16 -107 -66 -133 -115 -18 -35 -34 -141 -28 -190
11 -94 49 -157 116 -192 60 -32 194 -32 254 0 47 25 80 66 89 111 l7 31 -72 0
c-55 0 -71 -3 -71 -14 0 -8 -12 -24 -27 -36 -22 -17 -37 -21 -67 -17 -21 3
-45 12 -53 20 -20 19 -43 90 -34 100 5 5 80 9 167 10 92 0 162 5 166 11 8 12
0 89 -14 136 -16 51 -58 106 -99 129 -49 28 -141 35 -201 16z m114 -97 c28
-10 52 -54 46 -84 -3 -15 -16 -17 -91 -18 -48 -1 -87 3 -87 7 0 21 30 76 49
89 25 18 48 20 83 6z"/>
<path d="M10869 6120 c-38 -11 -71 -30 -91 -54 -15 -19 -18 -19 -19 -3 -1 9
-3 22 -4 27 -1 6 -3 13 -4 18 0 4 -31 7 -68 7 l-68 -1 0 -249 0 -250 75 0 75
0 0 167 c1 153 2 170 21 195 12 16 33 32 47 37 32 12 81 -7 94 -37 6 -12 10
-98 10 -192 l0 -170 77 -3 78 -3 -4 203 c-4 227 -10 249 -72 287 -37 23 -105
33 -147 21z"/>
<path d="M7502 6113 c-4 -2 -6 -115 -4 -253 l3 -250 74 0 75 0 0 174 c0 170 1
176 24 203 20 23 32 28 67 27 31 -1 48 -7 61 -24 19 -23 19 -33 20 -272 l0
-108 74 0 74 0 1 155 c1 85 3 160 4 165 1 6 3 16 4 24 2 28 36 57 74 61 31 4
43 0 62 -20 29 -28 27 -14 29 -220 l1 -160 75 0 74 0 -1 181 c-1 197 -8 236
-51 277 -35 33 -72 47 -128 47 -57 0 -103 -20 -135 -58 l-26 -30 -16 28 c-45
75 -206 81 -276 11 l-21 -21 0 30 c0 22 -5 30 -17 31 -10 0 -39 1 -66 2 -26 1
-50 1 -55 0z"/>
<path d="M9595 6110 l-30 -5 0 -245 0 -245 75 -3 75 -3 -2 248 c0 136 -1 250
-2 253 -1 3 -20 5 -44 5 -23 0 -55 -2 -72 -5z"/>
<path d="M9839 6110 c-19 -4 -24 -11 -23 -35 2 -66 -6 -62 120 -63 63 0 117
-2 119 -4 2 -1 -53 -61 -121 -133 l-123 -130 -1 -68 0 -67 213 2 212 3 3 50 3
50 -132 -2 -131 -2 23 27 c36 40 100 109 168 182 l61 65 0 65 0 65 -183 0
c-101 0 -194 -2 -208 -5z"/>
<path d="M10339 6080 c0 -19 -1 -133 -2 -253 l-2 -217 75 0 76 0 0 250 c0 167
-4 250 -11 251 -5 0 -38 1 -73 2 l-62 2 -1 -35z"/>
<path d="M7520 4040 l0 -360 69 0 c46 0 70 4 73 13 2 6 4 137 3 290 0 152 3
277 7 277 5 0 8 -4 8 -9 0 -5 27 -67 61 -137 74 -156 136 -287 174 -371 l29
-63 108 0 108 0 0 360 0 360 -73 0 -72 0 0 -275 c0 -151 -1 -275 -3 -275 -2 0
-48 93 -103 208 -55 114 -115 236 -132 272 l-32 65 -112 3 -113 3 0 -361z"/>
<path d="M8292 4128 c3 -257 4 -275 25 -313 30 -57 72 -93 139 -120 49 -20 73
-23 154 -21 111 2 181 28 240 89 62 64 68 100 70 385 l1 252 -76 0 -75 0 -1
-242 c-1 -261 -1 -270 -21 -306 -34 -64 -178 -85 -252 -37 -44 29 -50 70 -51
335 l0 245 -78 3 -78 3 3 -273z"/>
<path d="M9090 4040 l0 -361 73 3 72 3 0 288 c0 158 3 287 6 287 3 0 21 -48
38 -107 18 -60 49 -157 68 -218 20 -60 36 -114 38 -120 1 -5 10 -38 21 -72
l19 -63 65 0 65 0 13 43 c26 83 144 453 162 507 l18 55 1 -302 1 -303 75 0
c41 0 76 3 76 8 1 4 2 166 3 360 l1 353 -124 -3 -125 -3 -44 -140 c-95 -305
-96 -309 -107 -350 l-8 -30 -8 25 c-4 14 -23 79 -42 145 -20 66 -47 161 -62
210 -15 50 -28 98 -30 108 -7 35 -17 37 -141 37 l-124 0 0 -360z"/>
<path d="M10410 4040 l0 -360 79 0 79 0 0 128 c0 70 1 135 1 145 1 16 10 17
92 15 85 -3 93 -5 110 -28 10 -14 20 -43 23 -65 5 -42 14 -103 21 -145 2 -14
4 -31 4 -37 1 -9 25 -13 85 -13 l83 0 -13 50 c-12 45 -35 183 -37 219 -1 23
-63 81 -88 81 -19 1 -15 6 23 25 147 77 121 288 -40 334 -17 5 -119 10 -227
11 l-195 1 0 -361z m345 237 c31 -10 56 -60 50 -98 -14 -76 -39 -91 -155 -94
l-86 -1 1 95 c1 53 3 99 3 102 3 7 162 4 187 -4z"/>
<path d="M11102 4041 l0 -362 170 1 c189 2 247 13 311 60 92 67 132 161 132
305 0 133 -20 192 -89 260 -77 76 -121 88 -342 93 l-182 4 0 -361z m356 217
c70 -36 97 -95 97 -213 -1 -108 -23 -167 -80 -211 -33 -25 -47 -28 -126 -32
l-89 -4 0 239 c0 132 2 242 5 245 3 3 37 4 76 2 51 -2 84 -9 117 -26z"/>
<path d="M11851 4040 l0 -360 80 0 79 0 0 140 0 140 83 1 c101 1 131 6 171 26
89 46 133 189 87 288 -45 100 -106 123 -335 125 l-166 1 1 -361z m312 229 c60
-27 62 -135 4 -174 -24 -15 -156 -30 -158 -17 -1 4 -2 51 -3 105 l-2 97 68 0
c37 0 78 -5 91 -11z"/>
<path d="M10030 3943 l0 -58 108 2 c59 0 115 2 125 2 14 1 17 11 17 56 l0 55
-125 0 -125 0 0 -57z"/>
</g>
</svg>
