<?xml version="1.0" standalone="no"?>
<!DOCTYPE svg PUBLIC "-//W3C//DTD SVG 20010904//EN"
 "http://www.w3.org/TR/2001/REC-SVG-20010904/DTD/svg10.dtd">
<svg version="1.0" xmlns="http://www.w3.org/2000/svg"
 width="700.000000pt" height="700.000000pt" viewBox="0 0 700.000000 700.000000"
 preserveAspectRatio="xMidYMid meet">
<metadata>
Created by potrace 1.14, written by Peter Selinger 2001-2017
</metadata>
<g transform="translate(0.000000,700.000000) scale(0.100000,-0.100000)"
fill="#000000" stroke="none">
<path d="M4175 6410 c-216 -217 -263 -259 -280 -253 -11 4 -48 7 -82 7 -54 1
-66 -3 -100 -30 -25 -21 -43 -46 -54 -79 -9 -26 -23 -51 -30 -55 -8 -5 -52
-11 -99 -15 -47 -3 -92 -8 -101 -11 -11 -3 -20 5 -28 25 -28 66 -111 115 -182
106 -87 -11 -151 -79 -154 -164 l-2 -46 -107 -39 -106 -39 -39 41 c-61 62
-148 73 -221 27 -64 -40 -97 -134 -71 -200 7 -17 -6 -28 -91 -82 l-99 -63 -32
24 c-79 59 -172 51 -238 -21 -50 -54 -59 -125 -25 -194 l16 -32 -81 -82 -80
-82 -37 19 c-36 19 -113 21 -152 4 -11 -4 -141 120 -444 423 -268 268 -434
427 -442 424 -19 -7 -17 -29 4 -46 9 -7 201 -198 426 -424 l408 -411 -23 -32
c-19 -25 -24 -44 -24 -94 0 -60 4 -71 49 -130 5 -7 -15 -48 -54 -109 -59 -90
-65 -96 -89 -90 -89 23 -173 -17 -212 -102 l-14 -30 -273 0 -272 0 0 -22 0
-23 275 0 c271 0 275 0 275 -20 0 -32 26 -76 61 -103 l32 -25 -38 -110 -38
-110 -43 0 c-70 0 -131 -42 -160 -111 -37 -88 13 -197 103 -225 16 -5 21 -13
17 -29 -2 -12 -6 -49 -9 -82 -3 -33 -8 -69 -10 -80 -2 -11 -4 -27 -4 -36 -1
-11 -14 -18 -39 -23 -50 -7 -108 -60 -126 -111 l-13 -40 -384 0 c-375 -1 -384
-1 -384 -20 0 -19 10 -20 386 -23 l386 -2 10 -33 10 -32 -398 -396 c-351 -350
-396 -399 -385 -414 11 -15 57 28 411 378 l400 396 30 -19 c16 -10 44 -21 61
-24 35 -8 31 3 50 -166 10 -86 10 -85 -25 -100 -81 -33 -122 -138 -87 -221 28
-67 92 -109 165 -109 l37 0 37 -102 c20 -57 37 -108 37 -114 0 -6 -11 -17 -25
-24 -14 -7 -35 -35 -48 -61 l-22 -48 -272 -1 -273 0 0 -23 0 -22 271 0 c236 1
272 -1 276 -15 16 -49 38 -83 70 -107 32 -25 45 -28 111 -28 l75 -1 59 -92
c58 -93 66 -112 49 -112 -16 0 -51 -85 -51 -126 0 -22 9 -55 19 -74 l19 -35
-426 -427 c-378 -379 -425 -429 -412 -443 13 -13 64 34 441 411 l427 426 47
-16 c54 -19 120 -13 148 12 17 15 23 11 102 -70 l85 -86 -16 -30 c-46 -93 0
-212 94 -243 50 -17 126 -5 166 26 l34 26 97 -62 96 -61 -7 -43 c-8 -59 3
-100 38 -141 40 -45 77 -64 128 -64 53 0 97 19 137 60 l31 32 110 -37 c101
-34 109 -38 106 -61 -8 -74 50 -155 126 -178 82 -25 162 10 201 86 20 38 21
39 62 34 100 -12 173 -20 179 -18 4 1 11 -10 14 -26 22 -95 104 -159 190 -149
79 9 151 77 157 149 2 23 20 27 193 44 59 6 62 5 68 -19 3 -13 23 -40 45 -60
96 -87 248 -41 281 84 6 22 10 50 8 62 -3 20 9 26 106 60 l110 37 35 -34 c48
-45 72 -56 122 -56 116 0 207 116 171 218 -10 30 -10 30 92 94 l102 65 29 -23
c55 -44 141 -49 199 -11 22 15 28 10 287 -249 145 -145 269 -264 276 -264 40
0 3 45 -242 290 l-267 267 16 48 c20 58 13 106 -23 157 -45 65 -135 89 -211
58 l-32 -13 -261 261 -260 261 24 33 c30 40 59 109 59 143 0 14 7 25 18 28 9
3 384 4 832 3 448 -1 820 0 827 2 6 2 11 12 10 23 -1 19 -20 19 -844 19 l-843
0 0 28 c0 28 -36 111 -63 146 -13 18 8 42 351 387 l364 367 52 -24 c131 -61
284 1 332 137 l18 49 319 2 c291 3 320 5 323 20 1 9 -3 18 -9 20 -7 2 -152 4
-324 3 l-312 0 -6 34 c-28 151 -203 236 -341 166 -27 -14 -52 -25 -55 -25 -4
0 -699 692 -747 744 -1 2 14 33 33 70 19 37 35 78 35 92 l0 24 859 0 c787 0
859 1 865 16 4 9 4 20 0 23 -3 3 -391 6 -861 6 l-856 0 -12 47 c-6 26 -24 66
-39 89 l-28 42 267 267 268 268 31 -19 c135 -79 301 56 253 206 -21 65 -104
124 -169 119 -18 -1 -38 -3 -44 -3 -6 -1 -28 -12 -49 -26 l-37 -26 -101 64
-101 63 -1 75 c0 61 -4 80 -23 107 -64 89 -205 96 -274 13 l-27 -31 -118 40
-118 41 -2 45 c-4 95 -80 168 -173 167 -72 -1 -135 -43 -159 -105 -8 -22 -15
-26 -38 -24 -15 2 -59 7 -98 12 -38 4 -74 8 -80 9 -5 1 -15 3 -20 3 -6 1 -11
11 -12 23 -1 11 -12 39 -23 62 l-22 41 260 258 c228 227 258 261 245 273 -8 8
-15 15 -16 15 -1 0 -119 -117 -262 -260z m-519 -476 l17 -25 -104 -105 c-57
-57 -108 -104 -113 -104 -6 0 -32 21 -58 46 l-47 47 25 33 c14 17 28 48 31 68
4 24 11 36 22 37 9 0 25 2 36 4 11 2 52 7 90 10 39 4 72 9 74 11 7 7 10 5 27
-22z m555 -4 c11 0 18 -12 22 -36 22 -135 210 -182 300 -74 l28 32 117 -41
118 -42 0 -39 c2 -142 162 -224 275 -141 16 12 31 21 35 21 4 0 34 -17 68 -38
34 -22 81 -51 105 -66 32 -20 40 -31 32 -39 -15 -15 -14 -107 3 -137 13 -24 8
-31 -257 -296 l-270 -272 -45 24 c-25 13 -63 27 -84 30 -21 4 -38 9 -39 13 -1
3 -2 132 -3 286 -1 282 -1 283 -34 277 -5 -1 -8 -120 -8 -264 1 -145 -1 -273
-3 -286 -3 -17 -14 -25 -47 -33 -25 -6 -62 -24 -83 -39 l-38 -28 -459 459
-458 459 104 105 104 104 30 -19 c92 -56 214 -19 257 79 l12 27 101 -12 c56
-7 108 -13 117 -14z m-1100 -115 c39 -44 106 -66 163 -53 39 9 41 8 95 -47
l56 -55 -474 -471 -474 -471 -47 26 c-85 46 -193 44 -263 -6 l-29 -21 -104
104 c-83 82 -104 108 -99 124 16 53 16 90 0 132 l-17 45 83 84 c60 61 86 81
95 73 16 -13 59 -22 107 -22 47 0 112 43 139 93 15 27 18 49 15 95 l-4 61 97
60 97 61 24 -19 c35 -28 69 -40 115 -40 89 0 163 70 172 161 l4 49 77 27 c42
14 85 30 96 35 34 15 44 11 76 -25z m1241 -1143 c-12 -22 -25 -57 -30 -78 l-8
-39 -419 0 -420 0 0 528 -1 528 450 -450 450 -450 -22 -39z m-922 405 l0 -522
-440 0 -441 0 -5 25 c-3 14 -13 43 -23 65 l-18 39 461 458 c254 252 462 458
464 458 1 0 2 -235 2 -523z m-1421 -291 c101 -101 103 -104 88 -127 -9 -13
-20 -42 -26 -64 l-10 -40 -208 1 c-114 1 -210 2 -213 3 -3 0 -16 21 -29 46
-13 25 -28 45 -32 45 -5 0 6 24 24 53 18 28 46 74 62 100 l30 48 55 -6 c46 -4
63 -1 100 18 25 14 47 25 50 26 3 0 52 -46 109 -103z m61 -296 c0 -23 24 -76
46 -100 12 -14 -41 -70 -406 -435 -403 -403 -420 -418 -444 -407 -16 7 -24 18
-22 29 2 10 7 50 10 88 4 39 8 79 11 90 2 11 4 26 4 33 1 6 13 12 29 12 39 0
98 44 122 90 36 71 19 161 -42 211 l-31 26 38 111 38 112 36 -1 c83 -3 171 70
171 141 0 20 5 20 220 20 215 0 220 0 220 -20z m1360 -383 l0 -403 -47 -13
c-27 -6 -70 -26 -96 -43 l-49 -31 -374 374 c-206 206 -374 378 -374 382 0 5 9
22 21 38 11 16 23 45 26 64 l6 35 443 0 444 0 0 -403z m899 343 c10 -30 24
-65 31 -77 14 -21 0 -36 -343 -376 l-357 -354 -48 24 c-26 13 -68 27 -92 31
l-45 8 -1 402 0 402 419 -2 419 -3 17 -55z m-2094 -141 l50 -18 0 -443 0 -443
-445 -1 c-245 0 -451 1 -457 4 -7 2 -13 9 -13 16 0 6 -9 29 -21 50 l-21 39
414 414 c291 291 417 411 428 406 8 -3 38 -14 65 -24z m597 -346 l378 -378
-30 -59 c-17 -32 -30 -72 -30 -87 0 -16 -3 -30 -7 -30 -26 -5 -813 -4 -813 0
-1 9 -1 745 0 824 0 57 3 67 18 67 9 0 35 9 57 19 22 11 42 20 45 20 3 1 175
-169 382 -376z m1699 290 c19 -3 36 -10 39 -14 4 -5 5 -781 1 -824 -1 -7 -128
-11 -390 -11 l-389 0 -17 61 c-9 33 -31 80 -49 105 l-33 45 355 352 355 351
47 -29 c26 -16 62 -32 81 -36z m632 -333 l379 -380 -20 -27 c-10 -16 -23 -46
-28 -68 l-10 -40 -419 -1 c-231 -1 -427 0 -435 2 -13 3 -15 58 -15 419 0 228
2 416 5 416 3 1 18 3 34 5 15 1 49 14 75 27 25 13 48 25 51 26 3 0 175 -170
383 -379z m-2879 -972 c-1 -227 -2 -415 -3 -418 0 -3 -13 -7 -27 -8 -93 -7
-198 -104 -226 -206 l-12 -46 -191 0 -190 1 -22 47 c-27 57 -84 94 -147 96
l-41 2 -39 107 -39 108 36 36 c45 44 61 91 53 150 -9 71 -67 136 -131 147 -15
3 -29 7 -32 9 -4 5 -34 240 -30 242 65 29 102 64 119 111 l12 34 456 0 455 0
-1 -412z m866 382 c0 -16 12 -55 27 -86 l26 -56 -359 -359 -359 -359 -49 25
c-27 14 -62 25 -78 25 l-28 0 0 98 c-1 136 -1 571 -1 665 l1 77 410 0 410 0 0
-30z m1424 -350 c1 -206 -1 -385 -2 -396 -3 -16 -13 -23 -41 -28 -20 -3 -63
-22 -96 -41 l-59 -36 -340 340 -339 339 25 31 c25 29 51 88 63 144 l5 27 392
-2 392 -3 0 -375z m934 322 c13 -31 24 -62 25 -69 1 -6 -161 -175 -360 -375
l-361 -364 -39 23 c-35 21 -62 31 -133 47 l-25 5 0 396 0 395 435 0 435 0 23
-58z m-2132 -228 l54 -15 0 -395 0 -394 -418 0 -418 0 -12 45 c-7 25 -24 64
-39 86 l-27 40 359 359 358 358 44 -34 c24 -19 69 -41 99 -50z m956 -660 c-12
-16 -28 -55 -37 -86 l-16 -58 -403 0 -402 0 0 394 0 394 39 5 c21 3 64 18 95
34 l57 29 344 -342 343 -341 -20 -29z m-2307 -241 c7 -28 19 -63 28 -77 10
-14 17 -27 17 -30 0 -3 -41 -45 -90 -94 l-90 -90 -38 20 c-29 15 -51 18 -97
15 l-61 -4 -60 97 -61 97 23 28 c13 16 26 40 29 54 4 14 10 28 15 31 5 3 91 5
191 5 l182 0 12 -52z m1405 -508 l0 -561 -59 -58 c-55 -54 -61 -58 -88 -49
-63 22 -133 0 -183 -58 l-25 -29 -107 37 -108 37 0 33 c0 38 -23 98 -48 126
-60 66 -180 70 -247 7 -20 -18 -21 -18 -117 43 l-97 62 6 42 c12 90 -24 159
-102 194 -51 24 -91 24 -137 0 l-37 -18 -84 84 -84 85 19 36 c22 44 22 64 3
127 l-14 48 90 88 91 89 32 -25 c45 -34 109 -55 170 -55 143 0 258 99 290 250
l5 25 416 0 415 1 0 -561z m846 552 c5 -4 10 -20 12 -35 2 -15 17 -55 34 -89
l30 -62 -439 -441 -439 -442 2 539 c0 296 2 538 3 538 54 5 792 -3 797 -8z
m159 -246 c26 -16 67 -34 93 -41 l47 -11 0 -252 c0 -245 1 -252 20 -252 19 0
20 7 20 251 l0 251 55 11 c30 7 73 23 95 37 l40 24 262 -261 261 -261 -20 -38
c-21 -41 -25 -76 -14 -125 7 -31 5 -33 -89 -93 -52 -33 -97 -61 -100 -61 -2 0
-20 11 -39 24 -93 62 -212 31 -257 -68 -10 -23 -19 -57 -19 -77 0 -40 10 -34
-167 -95 l-52 -18 -21 27 c-36 45 -96 70 -152 64 -27 -4 -61 -14 -77 -23 -35
-21 -81 -90 -81 -121 0 -27 -6 -30 -75 -37 -191 -20 -174 -21 -184 7 -22 59
-97 107 -163 107 -55 -1 -114 -34 -144 -82 -16 -24 -29 -45 -31 -47 -1 -2 -54
2 -117 9 l-114 13 -5 34 c-4 19 -17 49 -31 67 l-24 32 515 517 c284 284 517
517 519 517 2 0 24 -13 49 -29z"/>
</g>
</svg>
