<svg xmlns="http://www.w3.org/2000/svg" viewBox="0 0 1365.33 768">
  <defs>
    <style>
      .cls-1,
      .cls-10,
      .cls-4,
      .cls-5,
      .cls-6,
      .cls-7,
      .cls-8,
      .cls-9 {
        fill: none;
      }

      .cls-2 {
        isolation: isolate;
      }

      .cls-3 {
        fill: #5f707e;
      }

      .cls-10,
      .cls-4,
      .cls-6,
      .cls-7,
      .cls-8,
      .cls-9 {
        stroke: #5f707e;
      }

      .cls-4,
      .cls-5 {
        stroke-miterlimit: 14.81;
        stroke-width: 3.56px;
      }

      .cls-5 {
        stroke: #2370a8;
      }

      .cls-6 {
        stroke-miterlimit: 14.81;
        stroke-width: 3.56px;
      }

      .cls-7 {
        stroke-miterlimit: 14.81;
        stroke-width: 3.56px;
      }

      .cls-8 {
        stroke-miterlimit: 14.81;
        stroke-width: 3.56px;
      }

      .cls-9 {
        stroke-miterlimit: 14.81;
        stroke-width: 3.56px;
      }

      .cls-10 {
        stroke-miterlimit: 14.81;
        stroke-width: 3.56px;
      }

      .cls-11 {
        fill: #2370a8;
      }

      .cls-12 {
        fill: #95c13d;
      }

      .cls-13 {
        fill: #488a98;
      }

      .cls-14 {
        fill: #72a55e;
      }

      .cls-15 {
        fill: #9eaab6;
      }

      .cls-16 {
        fill: #1e1c1a;
      }

      .cls-17 {
        fill: #e51e25;
      }

      .cls-18 {
        fill: #fed501;
      }
    </style>
  </defs>
  <g id="Ebene_2" data-name="Ebene 2">
    <g id="Ebene_1-2" data-name="Ebene 1">
      <rect id="ArtBoard1" class="cls-1" width="1365.33" height="768" />
      <g id="ArtBoard11">
        <g id="Ebene-1">
          <g class="cls-2">
            <path class="cls-3"
              d="M732.83,364.1a27,27,0,0,0-6-6.74,28,28,0,0,0-17.58-6.14q-9,0-15.35,3.5a29,29,0,0,0-10.24,9.38A41.21,41.21,0,0,0,678,377.5,66.85,66.85,0,0,0,676.18,393,62.2,62.2,0,0,0,678,408,40.26,40.26,0,0,0,683.69,421a29.2,29.2,0,0,0,10.24,9.3q6.3,3.51,15.35,3.5,12.29,0,19.2-7.51t8.44-19.79h25.94a62,62,0,0,1-5.29,20.65,49.41,49.41,0,0,1-11.26,15.69,47.8,47.8,0,0,1-16.38,9.9,59.93,59.93,0,0,1-20.65,3.41,62.45,62.45,0,0,1-25.16-4.86,53.81,53.81,0,0,1-18.86-13.39,59.28,59.28,0,0,1-11.77-20,73.62,73.62,0,0,1-4.1-24.83,76.17,76.17,0,0,1,4.1-25.34,60.94,60.94,0,0,1,11.77-20.39,53.79,53.79,0,0,1,18.86-13.64,65.31,65.31,0,0,1,44.19-2,51.69,51.69,0,0,1,16,8.44A45.67,45.67,0,0,1,756,353.78a49,49,0,0,1,5.81,18.77H735.9A21.86,21.86,0,0,0,732.83,364.1Z" />
            <path class="cls-3"
              d="M779.92,367.68a61.11,61.11,0,0,1,11.77-20.39,53.88,53.88,0,0,1,18.86-13.64,66.67,66.67,0,0,1,50.42,0,54.08,54.08,0,0,1,18.77,13.64,60.94,60.94,0,0,1,11.77,20.39,76.17,76.17,0,0,1,4.1,25.34,73.62,73.62,0,0,1-4.1,24.83,59.28,59.28,0,0,1-11.77,20A54.1,54.1,0,0,1,861,451.29a67.82,67.82,0,0,1-50.42,0,53.9,53.9,0,0,1-18.86-13.39,59.44,59.44,0,0,1-11.77-20A73.62,73.62,0,0,1,775.83,393,76.17,76.17,0,0,1,779.92,367.68ZM804.41,408A40,40,0,0,0,810.12,421a29.29,29.29,0,0,0,10.24,9.3q6.32,3.51,15.36,3.5t15.35-3.5a29.29,29.29,0,0,0,10.24-9.3A40.47,40.47,0,0,0,867,408,62.2,62.2,0,0,0,868.82,393,66.85,66.85,0,0,0,867,377.5a41.42,41.42,0,0,0-5.72-13.4,29,29,0,0,0-10.24-9.38,35.43,35.43,0,0,0-30.71,0,29,29,0,0,0-10.24,9.38,41,41,0,0,0-5.71,13.4,66.32,66.32,0,0,0-1.8,15.52A61.71,61.71,0,0,0,804.41,408Z" />
            <path class="cls-3"
              d="M966.42,331.6a62.8,62.8,0,0,1,21.92,3.75,47.52,47.52,0,0,1,17.57,11.26,52,52,0,0,1,11.61,18.77q4.17,11.26,4.18,26.45a84.59,84.59,0,0,1-3.41,24.57A54.08,54.08,0,0,1,1008,435.85a48.33,48.33,0,0,1-17.23,12.88q-10.32,4.69-24.31,4.69H913.86V331.6Zm-1.88,99.3A34.2,34.2,0,0,0,975.8,429a24.82,24.82,0,0,0,9.73-6.22,31.35,31.35,0,0,0,6.82-11.35,49.8,49.8,0,0,0,2.56-17.06,71.33,71.33,0,0,0-1.79-16.64A33.28,33.28,0,0,0,987.23,365a26.1,26.1,0,0,0-10.83-8.1q-6.75-2.82-16.64-2.82H940.65V430.9Z" />
            <path class="cls-3" d="M1131.41,331.6v22.52h-64.33v26.11h59V401h-59V430.9h65.69v22.52H1040.3V331.6Z" />
            <path class="cls-3"
              d="M1141.48,331.6h31l23.89,38.9,24.74-38.9h29.34l-39.07,58.18,42.49,63.64H1222l-26.62-42.14-27.13,42.14h-30l42.49-63.81Z" />
          </g>
          <path class="cls-4" d="M81.32,396.08H617.53" />
          <path class="cls-5"
            d="M518.83,223.87,477,197.61l-46.59-16.3-49.05-5.52-49.05,5.52-46.59,16.3L244,223.87l-35.47,35.89-25.7,40.81-16.3,46.59-5.53,49,5.53,49.05,16.3,46.59,26.26,41.8L244,568.55l40.93,26.12,47.45,16.44,49.05,5.53,49.05-5.53L477,594.81l41.8-26.26" />
          <path class="cls-6" d="M542.72,396.07,328.46,181.26" />
          <path class="cls-4" d="M122.21,299.08H617.53" />
          <path class="cls-4" d="M122.21,491.82H1273.75" />
          <path class="cls-4" d="M350.88,204.08V588.62" />
          <path class="cls-4" d="M447.14,226.34V561.9" />
          <path class="cls-4" d="M254.24,300.7V491.82" />
          <path class="cls-7" d="M522.57,223.38,127.14,616.64" />
          <path class="cls-8" d="M576.4,622.37,128.08,174" />
          <path class="cls-9" d="M435.27,120.23,82.17,471.72" />
          <path class="cls-10" d="M542.72,396.08l-214.24,215" />
          <path class="cls-11" d="M180.82,442a14.71,14.71,0,1,1-17.5-10.61A14.47,14.47,0,0,1,180.82,442" />
          <path class="cls-11" d="M196,485.47A14.7,14.7,0,1,1,176.61,479,14.47,14.47,0,0,1,196,485.47" />
          <path class="cls-11" d="M220.54,524.48a14.7,14.7,0,1,1-20.37-2,14.47,14.47,0,0,1,20.37,2" />
          <path class="cls-12" d="M529.92,214.32a14.7,14.7,0,1,1-20.3,2.61,14.48,14.48,0,0,1,20.3-2.61" />
          <path class="cls-13" d="M253.12,557.06a14.7,14.7,0,1,1-20.3,2.61,14.48,14.48,0,0,1,20.3-2.61" />
          <path class="cls-14" d="M484.63,185A14.7,14.7,0,1,1,465.42,192,14.47,14.47,0,0,1,484.63,185" />
          <path class="cls-13" d="M292.13,581.57a14.7,14.7,0,1,1-19.21,7.06,14.47,14.47,0,0,1,19.21-7.06" />
          <path class="cls-13" d="M433.72,166.93a14.71,14.71,0,1,1-17.15,11.16,14.48,14.48,0,0,1,17.15-11.16" />
          <path class="cls-14" d="M335.61,596.78a14.71,14.71,0,1,1-17.15,11.16,14.47,14.47,0,0,1,17.15-11.16" />
          <path class="cls-11" d="M381.39,161.08a14.71,14.71,0,1,1-14.24,14.7,14.49,14.49,0,0,1,14.24-14.7" />
          <path class="cls-14" d="M381.39,601.94a14.71,14.71,0,1,1-14.24,14.7,14.47,14.47,0,0,1,14.24-14.7" />
          <path class="cls-11" d="M329.07,167a14.71,14.71,0,1,1-10.61,17.49A14.47,14.47,0,0,1,329.07,167" />
          <path class="cls-14" d="M428.16,596.56a14.7,14.7,0,1,1-10.61,17.49,14.47,14.47,0,0,1,10.61-17.49" />
          <path class="cls-11" d="M279.37,184.37a14.7,14.7,0,1,1-6.45,19.42,14.47,14.47,0,0,1,6.45-19.42" />
          <path class="cls-12" d="M471.65,581.08a14.71,14.71,0,1,1-6.46,19.43,14.48,14.48,0,0,1,6.46-19.43" />
          <path class="cls-11" d="M234.79,212.38a14.71,14.71,0,1,1-2,20.37,14.49,14.49,0,0,1,2-20.37" />
          <path class="cls-12" d="M510.78,556.16a14.71,14.71,0,1,1-2,20.38,14.48,14.48,0,0,1,2-20.38" />
          <path class="cls-11" d="M197.56,249.61a14.71,14.71,0,1,1,2.61,20.3,14.47,14.47,0,0,1-2.61-20.3" />
          <path class="cls-11" d="M169.55,294.2a14.7,14.7,0,1,1,7.06,19.2,14.47,14.47,0,0,1-7.06-19.2" />
          <path class="cls-11" d="M152.16,343.89A14.71,14.71,0,1,1,163.32,361a14.48,14.48,0,0,1-11.16-17.15" />
          <path class="cls-11" d="M146.26,396.21A14.71,14.71,0,1,1,161,410.45a14.48,14.48,0,0,1-14.7-14.24" />
          <path class="cls-15" d="M274.56,298.66a20.41,20.41,0,1,0-20.41,20.41,20.41,20.41,0,0,0,20.41-20.41" />
          <path class="cls-15" d="M563.13,395.44a20.41,20.41,0,1,0-20.42,20.41,20.41,20.41,0,0,0,20.42-20.41" />
          <path class="cls-16" d="M472.4,299.15A24.36,24.36,0,1,1,448,274.79a24.35,24.35,0,0,1,24.36,24.36" />
          <path class="cls-15" d="M278.6,492.57a24.36,24.36,0,1,1-24.35-24.36,24.36,24.36,0,0,1,24.35,24.36" />
          <path class="cls-17" d="M379.17,396.09A27.13,27.13,0,1,1,352,369a27.13,27.13,0,0,1,27.13,27.13" />
          <path class="cls-18" d="M475.08,492.08A27.13,27.13,0,1,1,448,465a27.13,27.13,0,0,1,27.13,27.13" />
        </g>
      </g>
    </g>
  </g>
</svg>