<svg xmlns="http://www.w3.org/2000/svg" viewBox="0 0 225 190"><defs><style>.a{fill:none;stroke-linecap:round;stroke-linejoin:round;}.a,.b{stroke:#eb586a;}.b{fill:#fff;stroke-miterlimit:10;}.c{fill:#eb586a;}</style></defs><path class="a" d="M10.66,35.77,54,10.75C54,10.83,8.39,46.12,8.53,46.36c0,0,45.16-26.08,45.16-26.08s-49.22,44-49.21,44,75.93-44.08,76-43.9-79,58.7-78.9,58.85c0,0,113-65.57,113.14-65.33s-107.43,75-107.43,75L138.69,13.08,17.33,99.35s145-84.16,145.18-83.83c0,0-159.57,101.62-159.35,102L178.49,16.29c.08.15-165.6,105.35-165.14,106.15C13.49,122.67,201,14.12,201,14.12c.49.85-190.14,117.69-190.1,117.76L205.41,19.55,3.62,145.91c.23.39,206.58-119.63,206.74-119.36L18.11,147.7C18.36,148.14,217,32.89,217,32.89L11.14,162.28,220.84,41.21S24.22,171.56,24.56,172.14c.07.12,194.48-112.78,194.69-112.41S25.48,178.74,25.7,179.12c0,0,175.84-101.93,176-101.62,0,0-149.47,99.45-149.47,99.45L214.12,83.49,80.36,174.58c.26.44,137-79.1,137-79.1l-115,77.2c0,.07,116.36-67.18,116.36-67.18s-94.54,65.32-94.28,65.77c.08.15,82.26-47.5,82.26-47.5s-71.07,51-71,51.12,88.42-51,88.42-51l-80.42,57.52s65-37.57,65-37.54l-44.89,37.37,49.87-28.8"/><rect class="b" x="30.5" y="56.38" width="164" height="91.23" rx="8.19"/><path class="c" d="M45.75,76.76a27.8,27.8,0,0,1,4.68-.37A7.73,7.73,0,0,1,55.72,78a5.07,5.07,0,0,1,1.65,4,5.55,5.55,0,0,1-1.45,4A7.83,7.83,0,0,1,50.15,88a8.37,8.37,0,0,1-2-.17V95.4H45.75Zm2.44,9.1a8.19,8.19,0,0,0,2,.19c2.94,0,4.73-1.43,4.73-4s-1.77-3.7-4.46-3.7a10.24,10.24,0,0,0-2.29.2Z"/><path class="c" d="M60.43,75.52h2.46V95.4H60.43Z"/><path class="c" d="M74.54,95.4l-.2-1.7h-.08a5.06,5.06,0,0,1-4.15,2A3.86,3.86,0,0,1,66,91.82c0-3.28,2.91-5.07,8.15-5V86.5A2.8,2.8,0,0,0,71,83.36a6.81,6.81,0,0,0-3.53,1L67,82.75a8.38,8.38,0,0,1,4.45-1.21c4.15,0,5.15,2.83,5.15,5.55v5.07a18.76,18.76,0,0,0,.23,3.24Zm-.37-6.91c-2.68-.06-5.74.42-5.74,3.05a2.18,2.18,0,0,0,2.33,2.35A3.36,3.36,0,0,0,74,91.62a2.38,2.38,0,0,0,.14-.78Z"/><path class="c" d="M90.19,94.9a9,9,0,0,1-3.89.78c-4.09,0-6.75-2.77-6.75-6.91a6.89,6.89,0,0,1,7.28-7.2,8.32,8.32,0,0,1,3.41.7l-.56,1.91a5.62,5.62,0,0,0-2.85-.65c-3.11,0-4.79,2.3-4.79,5.13,0,3.13,2,5.06,4.7,5.06a7,7,0,0,0,3-.67Z"/><path class="c" d="M94.28,89.08c0,3.33,2.18,4.7,4.64,4.7a9,9,0,0,0,3.76-.7l.42,1.76a10.88,10.88,0,0,1-4.51.84c-4.17,0-6.67-2.74-6.67-6.83s2.41-7.31,6.36-7.31c4.42,0,5.6,3.9,5.6,6.39,0,.5-.06.89-.08,1.15Zm7.22-1.77c0-1.57-.64-4-3.42-4-2.49,0-3.58,2.29-3.78,4Z"/><path class="c" d="M106.93,75.52h2.47V84h0a4.56,4.56,0,0,1,1.77-1.74,5,5,0,0,1,2.52-.7c1.82,0,4.73,1.12,4.73,5.8V95.4H116V87.62c0-2.18-.81-4-3.13-4a3.55,3.55,0,0,0-3.31,2.46,3,3,0,0,0-.16,1.18V95.4h-2.47Z"/><path class="c" d="M134.74,88.52c0,5-3.48,7.19-6.75,7.19-3.67,0-6.5-2.69-6.5-7,0-4.54,3-7.2,6.72-7.2S134.74,84.37,134.74,88.52ZM124,88.66c0,3,1.71,5.2,4.12,5.2s4.12-2.21,4.12-5.26c0-2.3-1.15-5.21-4.06-5.21S124,86.08,124,88.66Z"/><path class="c" d="M137.84,75.52h2.47V95.4h-2.47Z"/><path class="c" d="M156.16,75.52V91.9c0,1.21,0,2.58.11,3.5h-2.21l-.12-2.35h-.05a5,5,0,0,1-4.62,2.66c-3.28,0-5.8-2.77-5.8-6.89,0-4.5,2.77-7.28,6.08-7.28a4.53,4.53,0,0,1,4.09,2.08h.05v-8.1Zm-2.47,11.85a4.6,4.6,0,0,0-.11-1A3.62,3.62,0,0,0,150,83.48c-2.54,0-4.06,2.24-4.06,5.23,0,2.75,1.35,5,4,5a3.7,3.7,0,0,0,3.61-2.94,4.42,4.42,0,0,0,.11-1.06Z"/><path class="c" d="M161.62,89.08c0,3.33,2.18,4.7,4.64,4.7a9,9,0,0,0,3.76-.7l.42,1.76a10.88,10.88,0,0,1-4.51.84c-4.17,0-6.67-2.74-6.67-6.83s2.41-7.31,6.36-7.31c4.42,0,5.6,3.9,5.6,6.39,0,.5-.06.89-.08,1.15Zm7.22-1.77c0-1.57-.64-4-3.42-4-2.49,0-3.58,2.29-3.78,4Z"/><path class="c" d="M174.27,86.08c0-1.6,0-3-.11-4.23h2.16l.08,2.66h.11a4.07,4.07,0,0,1,3.75-3,2.48,2.48,0,0,1,.7.09V84a4.06,4.06,0,0,0-.84-.08,3.45,3.45,0,0,0-3.3,3.16,6.6,6.6,0,0,0-.11,1.15V95.4h-2.44Z"/><path class="c" d="M55.76,123.07l-2,5.93H51.28l6.41-18.87h2.94L67.07,129h-2.6l-2-5.93ZM62,121.16l-1.85-5.43c-.42-1.23-.7-2.35-1-3.44h0c-.28,1.12-.59,2.27-1,3.41l-1.84,5.46Z"/><path class="c" d="M69.85,110.36a27.57,27.57,0,0,1,4.67-.37,7.73,7.73,0,0,1,5.29,1.57,5.08,5.08,0,0,1,1.66,4,5.56,5.56,0,0,1-1.46,4,7.83,7.83,0,0,1-5.77,2.07,8.37,8.37,0,0,1-2-.17V129H69.85Zm2.43,9.1a8.24,8.24,0,0,0,2,.19c2.94,0,4.73-1.43,4.73-4s-1.76-3.7-4.45-3.7a10.28,10.28,0,0,0-2.3.2Z"/><path class="c" d="M84.74,110.36a27.8,27.8,0,0,1,4.68-.37,7.73,7.73,0,0,1,5.29,1.57,5.07,5.07,0,0,1,1.65,4,5.55,5.55,0,0,1-1.45,4,7.83,7.83,0,0,1-5.77,2.07,8.37,8.37,0,0,1-2-.17V129H84.74Zm2.44,9.1a8.15,8.15,0,0,0,2,.19c2.94,0,4.74-1.43,4.74-4s-1.77-3.7-4.46-3.7a10.24,10.24,0,0,0-2.29.2Z"/><path class="c" d="M104.79,120.52v1.82H97.88v-1.82Z"/><path class="c" d="M107.76,110.13h2.43V127h8.07v2h-10.5Z"/><path class="c" d="M136,119.37c0,6.5-3.95,9.94-8.76,9.94-5,0-8.49-3.86-8.49-9.57,0-6,3.73-9.92,8.77-9.92S136,113.77,136,119.37Zm-14.64.31c0,4,2.18,7.64,6,7.64s6-3.55,6-7.84c0-3.75-2-7.67-6-7.67S121.37,115.54,121.37,119.68Z"/><path class="c" d="M153.54,128.16a17.36,17.36,0,0,1-5.8,1,8.87,8.87,0,0,1-9.69-9.52c0-5.63,3.9-9.74,10.22-9.74a11.74,11.74,0,0,1,4.71.86l-.59,2a9.77,9.77,0,0,0-4.17-.81c-4.59,0-7.59,2.86-7.59,7.59s2.88,7.61,7.28,7.61a8,8,0,0,0,3.25-.5v-5.63h-3.84v-2h6.22Z"/><path class="c" d="M173.39,119.37c0,6.5-3.95,9.94-8.76,9.94-5,0-8.49-3.86-8.49-9.57,0-6,3.73-9.92,8.77-9.92S173.39,113.77,173.39,119.37Zm-14.64.31c0,4,2.18,7.64,6,7.64s6-3.55,6-7.84c0-3.75-2-7.67-6-7.67S158.75,115.54,158.75,119.68Z"/></svg>