<?xml version="1.0" encoding="UTF-8" standalone="no"?>
<!DOCTYPE svg PUBLIC "-//W3C//DTD SVG 1.1//EN" "http://www.w3.org/Graphics/SVG/1.1/DTD/svg11.dtd">
<svg width="100%" height="100%" viewBox="0 0 1920 1080" version="1.1" xmlns="http://www.w3.org/2000/svg" xmlns:xlink="http://www.w3.org/1999/xlink" xml:space="preserve" xmlns:serif="http://www.serif.com/" style="fill-rule:evenodd;clip-rule:evenodd;stroke-miterlimit:5;">
    <rect id="ArtBoard1" x="0" y="0" width="1920" height="1080" style="fill:none;"/>
    <g id="ArtBoard11" serif:id="ArtBoard1">
        <g id="Ebene-1" serif:id="Ebene 1" transform="matrix(4.16667,0,0,4.16667,-783.543,-645.628)">
            <text x="405.032px" y="307.981px" style="font-family:'HelveticaNeue-Bold', 'Helvetica Neue';font-weight:700;font-size:57.586px;fill:rgb(95,112,126);">CODEX</text>
            <g transform="matrix(1,0,0,1,215.497,288.627)">
                <path d="M0,0L180.969,0" style="fill:none;fill-rule:nonzero;stroke:rgb(95,112,126);stroke-width:1.2px;"/>
            </g>
            <g transform="matrix(1,0,0,1,363.154,346.837)">
                <path d="M0,-116.329L-14.106,-125.192L-29.83,-130.694L-46.385,-132.559L-62.938,-130.694L-78.663,-125.192L-92.769,-116.329L-104.739,-104.219L-113.411,-90.443L-118.914,-74.72L-120.779,-58.165L-118.914,-41.611L-113.411,-25.887L-104.549,-11.781L-92.769,-0.001L-78.952,8.816L-62.938,14.364L-46.385,16.23L-29.83,14.364L-14.106,8.862L0,-0.001" style="fill:none;fill-rule:nonzero;stroke:rgb(35,112,168);stroke-width:1.2px;"/>
            </g>
            <g transform="matrix(-0.706188,-0.708024,-0.708024,0.706188,335.194,201.176)">
                <path d="M-87.355,36.25L15.043,36.25" style="fill:none;fill-rule:nonzero;stroke:rgb(95,112,126);stroke-width:1.2px;"/>
            </g>
            <g transform="matrix(1,0,0,1,229.296,255.89)">
                <path d="M0,0L167.17,0" style="fill:none;fill-rule:nonzero;stroke:rgb(95,112,126);stroke-width:1.2px;"/>
            </g>
            <g transform="matrix(1,0,0,1,229.296,320.941)">
                <path d="M0,0L388.646,0" style="fill:none;fill-rule:nonzero;stroke:rgb(95,112,126);stroke-width:1.2px;"/>
            </g>
            <g transform="matrix(0,1,1,0,371.363,288.719)">
                <path d="M-64.891,-64.891L64.891,-64.891" style="fill:none;fill-rule:nonzero;stroke:rgb(95,112,126);stroke-width:1.2px;"/>
            </g>
            <g transform="matrix(0,1,1,0,395.588,287.966)">
                <path d="M-56.627,-56.627L56.627,-56.627" style="fill:none;fill-rule:nonzero;stroke:rgb(95,112,126);stroke-width:1.2px;"/>
            </g>
            <g transform="matrix(0,1,1,0,306.107,288.689)">
                <path d="M-32.252,-32.252L32.252,-32.252" style="fill:none;fill-rule:nonzero;stroke:rgb(95,112,126);stroke-width:1.2px;"/>
            </g>
            <g transform="matrix(-0.709054,0.705154,0.705154,0.709054,297.171,390.813)">
                <path d="M-160.839,-66.362L27.381,-66.362" style="fill:none;fill-rule:nonzero;stroke:rgb(95,112,126);stroke-width:1.2px;"/>
            </g>
            <g transform="matrix(-0.707044,-0.70717,-0.70717,0.707044,306.951,182.332)">
                <path d="M-182.653,75.667L31.346,75.667" style="fill:none;fill-rule:nonzero;stroke:rgb(95,112,126);stroke-width:1.2px;"/>
            </g>
            <g transform="matrix(-0.708728,0.705481,0.705481,0.708728,274.982,338.916)">
                <path d="M-143.662,-59.314L24.489,-59.314" style="fill:none;fill-rule:nonzero;stroke:rgb(95,112,126);stroke-width:1.2px;"/>
            </g>
            <g transform="matrix(-0.705812,0.708399,0.708399,0.705812,335.252,376.136)">
                <path d="M-87.377,-36.286L15.069,-36.286" style="fill:none;fill-rule:nonzero;stroke:rgb(95,112,126);stroke-width:1.2px;"/>
            </g>
            <g transform="matrix(-0.22254,-0.974924,-0.974924,0.22254,242.087,300.756)">
                <path d="M-4.836,-6.065C-7.491,-6.065 -9.644,-3.843 -9.643,-1.104C-9.644,1.635 -7.491,3.857 -4.836,3.857C-2.181,3.857 -0.029,1.635 -0.03,-1.104C-0.03,-3.844 -2.182,-6.065 -4.836,-6.065" style="fill:rgb(35,112,168);fill-rule:nonzero;"/>
            </g>
            <g transform="matrix(-0.43394,-0.900942,-0.900942,0.43394,245.863,317.857)">
                <path d="M-4.47,-7.113C-7.125,-7.113 -9.277,-4.892 -9.276,-2.152C-9.276,0.587 -7.123,2.808 -4.47,2.807C-1.814,2.808 0.338,0.586 0.338,-2.153C0.337,-4.892 -1.815,-7.114 -4.47,-7.113" style="fill:rgb(35,112,168);fill-rule:nonzero;"/>
            </g>
            <g transform="matrix(-0.62349,-0.781832,-0.781832,0.62349,253.768,333.953)">
                <path d="M-3.878,-8.055C-6.532,-8.055 -8.685,-5.834 -8.685,-3.093C-8.686,-0.354 -6.533,1.867 -3.878,1.867C-1.223,1.867 0.929,-0.354 0.929,-3.093C0.928,-5.834 -1.224,-8.054 -3.878,-8.055" style="fill:rgb(35,112,168);fill-rule:nonzero;"/>
            </g>
            <g transform="matrix(-0.781782,-0.623551,-0.623551,0.781782,358.969,232.263)">
                <path d="M-3.094,-8.839C-5.748,-8.839 -7.9,-6.618 -7.901,-3.879C-7.901,-1.139 -5.749,1.081 -3.094,1.083C-0.44,1.084 1.714,-1.139 1.714,-3.877C1.714,-6.617 -0.439,-8.838 -3.094,-8.839" style="fill:rgb(149,193,61);fill-rule:nonzero;"/>
            </g>
            <g transform="matrix(-0.781832,-0.62349,-0.62349,0.781832,265.547,347.939)">
                <path d="M-3.094,-8.84C-5.748,-8.839 -7.9,-6.619 -7.901,-3.878C-7.901,-1.139 -5.749,1.082 -3.094,1.082C-0.439,1.082 1.714,-1.139 1.713,-3.878C1.713,-6.619 -0.44,-8.84 -3.094,-8.84" style="fill:rgb(72,138,152);fill-rule:nonzero;"/>
            </g>
            <g transform="matrix(-0.900942,-0.43394,-0.43394,0.900942,345.581,224.935)">
                <path d="M-2.153,-9.429C-4.807,-9.43 -6.959,-7.209 -6.96,-4.469C-6.96,-1.73 -4.807,0.491 -2.153,0.491C0.502,0.491 2.654,-1.729 2.654,-4.468C2.655,-7.208 0.502,-9.429 -2.153,-9.429" style="fill:rgb(114,165,94);fill-rule:nonzero;"/>
            </g>
            <g transform="matrix(-0.900942,-0.43394,-0.43394,0.900942,280.612,358.791)">
                <path d="M-2.152,-9.43C-4.807,-9.431 -6.959,-7.209 -6.96,-4.47C-6.96,-1.731 -4.808,0.491 -2.152,0.49C0.501,0.491 2.654,-1.73 2.654,-4.469C2.655,-7.209 0.503,-9.43 -2.152,-9.43" style="fill:rgb(72,138,152);fill-rule:nonzero;"/>
            </g>
            <g transform="matrix(-0.97494,-0.222466,-0.222466,0.97494,331.176,220.594)">
                <path d="M-1.104,-9.796C-3.759,-9.796 -5.91,-7.576 -5.91,-4.836C-5.911,-2.096 -3.758,0.125 -1.104,0.124C1.552,0.125 3.703,-2.097 3.703,-4.836C3.704,-7.575 1.551,-9.797 -1.104,-9.796" style="fill:rgb(72,138,152);fill-rule:nonzero;"/>
            </g>
            <g transform="matrix(-0.974924,-0.22254,-0.22254,0.974924,298.062,365.67)">
                <path d="M-1.104,-9.797C-3.759,-9.797 -5.911,-7.576 -5.91,-4.837C-5.911,-2.097 -3.76,0.124 -1.104,0.124C1.551,0.124 3.703,-2.098 3.702,-4.836C3.703,-7.576 1.551,-9.798 -1.104,-9.797" style="fill:rgb(114,165,94);fill-rule:nonzero;"/>
            </g>
            <g transform="matrix(-1,0,0,1,316.77,219.238)">
                <path d="M0.001,-9.922C-2.654,-9.922 -4.807,-7.7 -4.807,-4.961C-4.807,-2.221 -2.654,0 0.001,0C2.655,0 4.808,-2.221 4.808,-4.961C4.808,-7.7 2.655,-9.922 0.001,-9.922" style="fill:rgb(35,112,168);fill-rule:nonzero;"/>
            </g>
            <g transform="matrix(-1,0,0,1,316.769,368.026)">
                <path d="M0,-9.921C-2.655,-9.921 -4.807,-7.7 -4.807,-4.96C-4.807,-2.221 -2.655,0 0,0C2.654,0 4.807,-2.221 4.807,-4.96C4.807,-7.7 2.654,-9.921 0,-9.921" style="fill:rgb(114,165,94);fill-rule:nonzero;"/>
            </g>
            <g transform="matrix(-0.974919,0.222562,0.222562,0.974919,302.367,220.611)">
                <path d="M1.104,-9.796C-1.552,-9.796 -3.703,-7.575 -3.702,-4.835C-3.703,-2.096 -1.551,0.124 1.104,0.124C3.759,0.125 5.911,-2.097 5.91,-4.837C5.911,-7.577 3.759,-9.796 1.104,-9.796" style="fill:rgb(35,112,168);fill-rule:nonzero;"/>
            </g>
            <g transform="matrix(-0.974945,0.222444,0.222444,0.974945,335.81,365.594)">
                <path d="M1.104,-9.797C-1.551,-9.798 -3.704,-7.576 -3.703,-4.837C-3.703,-2.098 -1.552,0.124 1.104,0.124C3.758,0.125 5.91,-2.097 5.91,-4.836C5.91,-7.576 3.759,-9.797 1.104,-9.797" style="fill:rgb(114,165,94);fill-rule:nonzero;"/>
            </g>
            <g transform="matrix(-0.900942,0.43394,0.43394,0.900942,288.369,224.737)">
                <path d="M2.153,-9.429C-0.502,-9.429 -2.655,-7.208 -2.654,-4.468C-2.654,-1.729 -0.502,0.491 2.153,0.491C4.807,0.491 6.96,-1.73 6.96,-4.469C6.959,-7.209 4.807,-9.43 2.153,-9.429" style="fill:rgb(35,112,168);fill-rule:nonzero;"/>
            </g>
            <g transform="matrix(-0.900942,0.43394,0.43394,0.900942,353.262,358.63)">
                <path d="M2.151,-9.431C-0.503,-9.43 -2.655,-7.21 -2.654,-4.47C-2.655,-1.73 -0.503,0.49 2.151,0.49C4.807,0.49 6.958,-1.731 6.959,-4.471C6.959,-7.21 4.807,-9.432 2.151,-9.431" style="fill:rgb(149,193,61);fill-rule:nonzero;"/>
            </g>
            <g transform="matrix(-0.781832,0.62349,0.62349,0.781832,275.221,231.612)">
                <path d="M3.092,-8.839C0.438,-8.839 -1.715,-6.618 -1.715,-3.879C-1.715,-1.14 0.438,1.082 3.092,1.083C5.747,1.082 7.899,-1.139 7.899,-3.879C7.899,-6.619 5.747,-8.839 3.092,-8.839" style="fill:rgb(35,112,168);fill-rule:nonzero;"/>
            </g>
            <g transform="matrix(-0.781782,0.623551,0.623551,0.781782,368.367,347.638)">
                <path d="M3.093,-8.84C0.439,-8.839 -1.714,-6.618 -1.713,-3.877C-1.714,-1.139 0.439,1.083 3.094,1.083C5.749,1.081 7.901,-1.139 7.901,-3.879C7.9,-6.619 5.748,-8.84 3.093,-8.84" style="fill:rgb(149,193,61);fill-rule:nonzero;"/>
            </g>
            <g transform="matrix(-0.623551,0.781782,0.781782,0.623551,263.442,241.184)">
                <path d="M3.878,-8.055C1.224,-8.055 -0.928,-5.834 -0.928,-3.095C-0.929,-0.354 1.223,1.866 3.878,1.868C6.533,1.868 8.686,-0.354 8.686,-3.093C8.686,-5.833 6.533,-8.054 3.878,-8.055" style="fill:rgb(35,112,168);fill-rule:nonzero;"/>
            </g>
            <g transform="matrix(-0.43394,0.900942,0.900942,0.43394,253.621,253.301)">
                <path d="M4.47,-7.113C1.814,-7.115 -0.337,-4.892 -0.338,-2.153C-0.338,0.586 1.813,2.808 4.47,2.807C7.123,2.808 9.276,0.587 9.275,-2.153C9.276,-4.893 7.125,-7.113 4.47,-7.113" style="fill:rgb(35,112,168);fill-rule:nonzero;"/>
            </g>
            <g transform="matrix(-0.22254,0.974924,0.974924,0.22254,246.392,267.647)">
                <path d="M4.837,-6.064C2.182,-6.064 0.03,-3.843 0.03,-1.104C0.03,1.636 2.181,3.858 4.837,3.858C7.492,3.857 9.643,1.635 9.643,-1.103C9.644,-3.843 7.492,-6.065 4.837,-6.064" style="fill:rgb(35,112,168);fill-rule:nonzero;"/>
            </g>
            <g transform="matrix(0,1,1,0,242.375,283.711)">
                <path d="M4.961,-4.961C2.306,-4.961 0.154,-2.739 0.154,-0C0.154,2.74 2.306,4.961 4.961,4.961C7.614,4.961 9.767,2.74 9.767,-0C9.767,-2.739 7.614,-4.961 4.961,-4.961" style="fill:rgb(35,112,168);fill-rule:nonzero;"/>
            </g>
            <g transform="matrix(0,-1,-1,0,273.828,248.859)">
                <path d="M-6.889,-6.887C-3.084,-6.887 0,-3.803 0,0.001C0,3.805 -3.084,6.889 -6.889,6.889C-10.693,6.889 -13.777,3.805 -13.777,0.001C-13.777,-3.803 -10.693,-6.887 -6.889,-6.887" style="fill:rgb(158,170,182);fill-rule:nonzero;"/>
            </g>
            <g transform="matrix(0,-1,-1,0,371.217,281.522)">
                <path d="M-6.888,-6.888C-3.084,-6.888 0,-3.804 0,0.001C0,3.804 -3.084,6.888 -6.888,6.888C-10.692,6.888 -13.777,3.804 -13.777,0.001C-13.777,-3.804 -10.692,-6.888 -6.888,-6.888" style="fill:rgb(158,170,182);fill-rule:nonzero;"/>
            </g>
            <g transform="matrix(0,-1,-1,0,339.266,247.692)">
                <path d="M-8.22,-8.22C-12.76,-8.22 -16.44,-4.539 -16.44,0.001C-16.44,4.541 -12.76,8.22 -8.22,8.22C-3.68,8.22 0.001,4.541 0.001,0.001C0.001,-4.539 -3.68,-8.22 -8.22,-8.22" style="fill:rgb(30,28,26);fill-rule:nonzero;"/>
            </g>
            <g transform="matrix(0,-1,-1,0,273.859,312.972)">
                <path d="M-8.22,-8.22C-12.76,-8.22 -16.441,-4.539 -16.441,0.001C-16.441,4.541 -12.76,8.22 -8.22,8.22C-3.68,8.22 0.001,4.541 0.001,0.001C0.001,-4.539 -3.68,-8.22 -8.22,-8.22" style="fill:rgb(158,170,182);fill-rule:nonzero;"/>
            </g>
            <g transform="matrix(0,-1,-1,0,306.865,279.475)">
                <path d="M-9.156,-9.156C-14.213,-9.156 -18.312,-5.056 -18.312,0C-18.312,5.057 -14.213,9.156 -9.156,9.156C-4.099,9.156 0,5.057 0,0C0,-5.056 -4.099,-9.156 -9.156,-9.156" style="fill:rgb(229,30,37);fill-rule:nonzero;"/>
            </g>
            <g transform="matrix(0,-1,-1,0,339.234,311.871)">
                <path d="M-9.156,-9.156C-14.213,-9.156 -18.312,-5.056 -18.312,0C-18.312,5.057 -14.213,9.156 -9.156,9.156C-4.099,9.156 0,5.057 0,0C0,-5.056 -4.099,-9.156 -9.156,-9.156" style="fill:rgb(254,213,1);fill-rule:nonzero;"/>
            </g>
        </g>
    </g>
</svg>
