<?xml version="1.0" encoding="UTF-8" standalone="no"?><!DOCTYPE svg PUBLIC "-//W3C//DTD SVG 1.1//EN" "http://www.w3.org/Graphics/SVG/1.1/DTD/svg11.dtd"><svg width="100%" height="100%" viewBox="0 0 1871 630" version="1.1" xmlns="http://www.w3.org/2000/svg" xmlns:xlink="http://www.w3.org/1999/xlink" xml:space="preserve" xmlns:serif="http://www.serif.com/" style="fill-rule:evenodd;clip-rule:evenodd;stroke-linejoin:round;stroke-miterlimit:2;"><g><path d="M693.297,4.88l151.969,-0c138.525,-0 222.349,103.453 221.845,206.015c-0.504,102.562 -84.606,205.554 -221.845,205.554l-164.477,0c14.976,-9.382 28.989,-20.212 41.784,-32.376c19.125,-18.183 34.977,-38.762 47.262,-60.971l75.431,0c95.121,0 128.765,-56.119 129.043,-112.669c0.278,-56.55 -32.078,-112.207 -129.043,-112.207l-71.028,-0c-12.799,-25.39 -30.164,-48.861 -51.665,-69.303c-9.166,-8.714 -18.956,-16.743 -29.276,-24.043Z" style="fill:#5f0d22;fill-rule:nonzero;"/><path d="M333.679,375.027c-50.622,39.407 -118.15,53.869 -181.855,35.443c-82.986,-24.002 -141.599,-97.759 -148.258,-183.57c-6.659,-85.811 39.653,-167.623 117.69,-204.568c26.825,-12.7 55.484,-19.033 84.008,-19.385c44.191,-0.543 88.055,13.272 124.263,40.021c-21.241,23.428 -38.018,50.509 -49.105,79.994c-33.059,-29.422 -78.595,-36.027 -118.367,-17.198c-42.027,19.897 -68.457,65.2 -64.663,114.087c3.793,48.887 36.622,88.963 80.969,101.79c37.236,10.77 76.245,1.11 104.331,-25.367c11.6,28.725 28.78,55.455 50.987,78.753Z" style="fill:#5f0d22;fill-rule:nonzero;"/><path d="M532.655,95.134c28.638,0 56.194,11.701 76.939,33.227c20.744,21.525 32.717,51.199 32.717,82.304c0,31.104 -11.973,60.778 -32.717,82.303c-20.745,21.526 -48.301,33.227 -76.939,33.227c-28.638,-0 -56.193,-11.701 -76.939,-33.227c-20.744,-21.525 -32.717,-51.199 -32.717,-82.303c-0,-65.266 49.489,-115.531 109.656,-115.531Zm-0,-92.803c-112.209,-0 -202.459,94.734 -202.459,208.334c-0,54.789 20.91,107.491 58.699,146.702c37.788,39.21 89.62,61.631 143.76,61.631c54.141,0 105.972,-22.421 143.76,-61.631c37.789,-39.211 58.699,-91.913 58.699,-146.702c0,-54.79 -20.91,-107.492 -58.699,-146.703c-37.788,-39.21 -89.619,-61.631 -143.76,-61.631Z" style="fill:#eb586a;fill-rule:nonzero;"/><path d="M1414.28,326.405l-70.054,85.403l-324.841,0c32.31,-23.104 57.9,-52.594 75.856,-85.403l319.039,-0Zm93.106,-113.507l-35.583,43.381l-350.326,-0c3.775,-14.918 5.751,-30.173 5.827,-45.419c0.076,-15.376 -1.799,-30.772 -5.517,-45.809l346.351,-0l39.248,47.847Zm-96.955,-118.199l-314.701,0c-17.839,-32.709 -43.355,-62.126 -75.662,-85.178l320.493,-0l69.87,85.178Z" style="fill:#5f0d22;fill-rule:nonzero;"/><path d="M1414.28,9.521l167.723,203.377l-164.038,198.91l118.626,0l104.725,-126.988l104.725,126.988l118.626,0l-164.038,-198.91l167.723,-203.377l-118.627,-0l-108.409,131.455l-108.409,-131.455l-118.627,-0Z" style="fill:#5f0d22;fill-rule:nonzero;"/><path d="M112.681,608.19c-1.767,2.693 -3.903,5.237 -6.407,7.631c-2.504,2.394 -5.4,4.488 -8.69,6.284c-3.289,1.795 -6.922,3.217 -10.899,4.264c-3.977,1.047 -8.322,1.571 -13.035,1.571c-7.855,-0 -15.121,-1.397 -21.798,-4.189c-6.677,-2.793 -12.422,-6.658 -17.233,-11.596c-4.811,-4.937 -8.567,-10.797 -11.267,-17.58c-2.701,-6.783 -4.051,-14.214 -4.051,-22.293c0,-8.079 1.375,-15.51 4.124,-22.293c2.75,-6.783 6.554,-12.643 11.415,-17.58c4.86,-4.938 10.605,-8.803 17.233,-11.596c6.627,-2.793 13.82,-4.189 21.577,-4.189c3.83,0 7.585,0.399 11.268,1.197c3.682,0.798 7.143,1.92 10.383,3.366c3.241,1.447 6.186,3.192 8.837,5.237c2.652,2.045 4.861,4.364 6.628,6.957l-8.837,6.583c-1.08,-1.695 -2.528,-3.391 -4.345,-5.087c-1.816,-1.695 -3.952,-3.191 -6.407,-4.488c-2.455,-1.297 -5.13,-2.344 -8.027,-3.142c-2.897,-0.798 -6.014,-1.197 -9.353,-1.197c-6.775,-0 -12.838,1.247 -18.19,3.74c-5.351,2.494 -9.892,5.86 -13.624,10.1c-3.731,4.239 -6.578,9.151 -8.542,14.737c-1.964,5.586 -2.946,11.471 -2.946,17.655c-0,6.184 1.006,12.069 3.019,17.655c2.013,5.586 4.885,10.498 8.617,14.737c3.731,4.239 8.272,7.606 13.624,10.099c5.351,2.494 11.365,3.741 18.042,3.741c5.99,-0 11.685,-1.247 17.086,-3.741c5.4,-2.493 9.917,-6.483 13.55,-11.969l8.248,5.386Z" style="fill:#232323;fill-rule:nonzero;"/><path d="M239.643,572.282c-0,8.079 -1.375,15.51 -4.124,22.293c-2.75,6.783 -6.555,12.643 -11.415,17.58c-4.861,4.938 -10.605,8.803 -17.233,11.596c-6.628,2.792 -13.82,4.189 -21.577,4.189c-7.757,-0 -14.95,-1.397 -21.578,-4.189c-6.628,-2.793 -12.372,-6.658 -17.232,-11.596c-4.861,-4.937 -8.666,-10.797 -11.415,-17.58c-2.75,-6.783 -4.124,-14.214 -4.124,-22.293c-0,-8.079 1.374,-15.51 4.124,-22.293c2.749,-6.783 6.554,-12.643 11.415,-17.58c4.86,-4.938 10.604,-8.803 17.232,-11.596c6.628,-2.793 13.821,-4.189 21.578,-4.189c7.757,0 14.949,1.396 21.577,4.189c6.628,2.793 12.372,6.658 17.233,11.596c4.86,4.937 8.665,10.797 11.415,17.58c2.749,6.783 4.124,14.214 4.124,22.293Zm-11.194,-0c-0,-6.184 -0.982,-12.069 -2.946,-17.655c-1.964,-5.586 -4.811,-10.498 -8.543,-14.737c-3.731,-4.24 -8.272,-7.606 -13.624,-10.1c-5.351,-2.493 -11.365,-3.74 -18.042,-3.74c-6.677,-0 -12.692,1.247 -18.043,3.74c-5.351,2.494 -9.893,5.86 -13.624,10.1c-3.731,4.239 -6.579,9.151 -8.543,14.737c-1.964,5.586 -2.945,11.471 -2.945,17.655c-0,6.184 0.981,12.069 2.945,17.655c1.964,5.586 4.812,10.473 8.543,14.662c3.731,4.19 8.273,7.531 13.624,10.025c5.351,2.494 11.366,3.74 18.043,3.74c6.677,0 12.691,-1.246 18.042,-3.74c5.352,-2.494 9.893,-5.835 13.624,-10.025c3.732,-4.189 6.579,-9.076 8.543,-14.662c1.964,-5.586 2.946,-11.471 2.946,-17.655Z" style="fill:#232323;fill-rule:nonzero;"/><path d="M299.294,611.332l0.294,0l33.877,-92.015l11.341,0l-39.915,105.93l-11.194,-0l-39.768,-105.93l11.489,0l33.876,92.015Z" style="fill:#232323;fill-rule:nonzero;"/><rect x="366.457" y="519.317" width="10.605" height="105.93" style="fill:#232323;fill-rule:nonzero;"/><path d="M412.116,519.317l34.612,0c6.481,0 12.986,1.097 19.516,3.292c6.53,2.194 12.421,5.511 17.674,9.949c5.254,4.439 9.5,9.975 12.741,16.608c3.24,6.633 4.86,14.338 4.86,23.116c0,8.877 -1.62,16.608 -4.86,23.191c-3.241,6.583 -7.487,12.094 -12.741,16.533c-5.253,4.438 -11.144,7.755 -17.674,9.949c-6.53,2.195 -13.035,3.292 -19.516,3.292l-34.612,-0l-0,-105.93Zm10.605,96.354l21.062,0c7.855,0 14.704,-1.247 20.546,-3.74c5.843,-2.494 10.678,-5.761 14.508,-9.8c3.829,-4.04 6.701,-8.653 8.616,-13.84c1.915,-5.187 2.872,-10.523 2.872,-16.009c0,-5.486 -0.957,-10.822 -2.872,-16.009c-1.915,-5.187 -4.787,-9.8 -8.616,-13.84c-3.83,-4.04 -8.665,-7.306 -14.508,-9.8c-5.842,-2.493 -12.691,-3.74 -20.546,-3.74l-21.062,-0l-0,86.778Z" style="fill:#232323;fill-rule:nonzero;"/><path d="M575.163,519.317l34.612,0c6.481,0 12.986,1.097 19.516,3.292c6.529,2.194 12.421,5.511 17.674,9.949c5.253,4.439 9.5,9.975 12.74,16.608c3.241,6.633 4.861,14.338 4.861,23.116c-0,8.877 -1.62,16.608 -4.861,23.191c-3.24,6.583 -7.487,12.094 -12.74,16.533c-5.253,4.438 -11.145,7.755 -17.674,9.949c-6.53,2.195 -13.035,3.292 -19.516,3.292l-34.612,-0l-0,-105.93Zm10.604,96.354l21.062,0c7.856,0 14.705,-1.247 20.547,-3.74c5.842,-2.494 10.678,-5.761 14.508,-9.8c3.829,-4.04 6.701,-8.653 8.616,-13.84c1.915,-5.187 2.872,-10.523 2.872,-16.009c0,-5.486 -0.957,-10.822 -2.872,-16.009c-1.915,-5.187 -4.787,-9.8 -8.616,-13.84c-3.83,-4.04 -8.666,-7.306 -14.508,-9.8c-5.842,-2.493 -12.691,-3.74 -20.547,-3.74l-21.062,-0l0,86.778Z" style="fill:#232323;fill-rule:nonzero;"/><path d="M689.752,625.247l-11.636,-0l45.07,-105.93l10.31,0l44.776,105.93l-11.783,-0l-11.489,-27.829l-53.907,-0l-11.341,27.829Zm15.318,-37.704l45.953,0l-22.976,-56.256l-22.977,56.256Z" style="fill:#232323;fill-rule:nonzero;"/><path d="M825.551,625.247l-10.605,-0l0,-96.354l-34.907,-0l0,-9.576l80.419,0l-0,9.576l-34.907,-0l-0,96.354Z" style="fill:#232323;fill-rule:nonzero;"/><path d="M873.861,625.247l-11.636,-0l45.07,-105.93l10.31,0l44.775,105.93l-11.782,-0l-11.489,-27.829l-53.907,-0l-11.341,27.829Zm15.318,-37.704l45.953,0l-22.976,-56.256l-22.977,56.256Z" style="fill:#232323;fill-rule:nonzero;"/><path d="M1037.2,615.671l55.822,0l0,9.576l-66.426,-0l-0,-105.93l64.659,0l-0,9.576l-54.055,-0l0,36.507l50.52,-0l-0,9.425l-50.52,0l0,40.846Z" style="fill:#232323;fill-rule:nonzero;"/><path d="M1155.33,562.108l28.426,-42.791l12.667,0l-34.613,50.421l38.295,55.509l-13.256,-0l-31.814,-47.728l-31.667,47.728l-13.256,-0l38.295,-55.658l-34.907,-50.272l13.256,0l28.574,42.791Z" style="fill:#232323;fill-rule:nonzero;"/><path d="M1309.24,608.19c-1.768,2.693 -3.903,5.237 -6.407,7.631c-2.504,2.394 -5.401,4.488 -8.69,6.284c-3.29,1.795 -6.923,3.217 -10.9,4.264c-3.976,1.047 -8.321,1.571 -13.034,1.571c-7.856,-0 -15.122,-1.397 -21.799,-4.189c-6.677,-2.793 -12.421,-6.658 -17.233,-11.596c-4.811,-4.937 -8.567,-10.797 -11.267,-17.58c-2.7,-6.783 -4.05,-14.214 -4.05,-22.293c-0,-8.079 1.374,-15.51 4.124,-22.293c2.749,-6.783 6.554,-12.643 11.414,-17.58c4.861,-4.938 10.605,-8.803 17.233,-11.596c6.628,-2.793 13.82,-4.189 21.578,-4.189c3.829,0 7.585,0.399 11.267,1.197c3.682,0.798 7.143,1.92 10.384,3.366c3.24,1.447 6.186,3.192 8.837,5.237c2.651,2.045 4.86,4.364 6.628,6.957l-8.837,6.583c-1.08,-1.695 -2.529,-3.391 -4.345,-5.087c-1.817,-1.695 -3.953,-3.191 -6.407,-4.488c-2.455,-1.297 -5.131,-2.344 -8.027,-3.142c-2.897,-0.798 -6.015,-1.197 -9.353,-1.197c-6.775,-0 -12.839,1.247 -18.19,3.74c-5.352,2.494 -9.893,5.86 -13.624,10.1c-3.731,4.239 -6.579,9.151 -8.543,14.737c-1.964,5.586 -2.946,11.471 -2.946,17.655c0,6.184 1.007,12.069 3.02,17.655c2.013,5.586 4.885,10.498 8.616,14.737c3.731,4.239 8.273,7.606 13.624,10.099c5.352,2.494 11.366,3.741 18.043,3.741c5.989,-0 11.685,-1.247 17.085,-3.741c5.401,-2.493 9.917,-6.483 13.551,-11.969l8.248,5.386Z" style="fill:#232323;fill-rule:nonzero;"/><path d="M1334.87,519.317l10.604,0l0,45.933l56.853,-0l0,-45.933l10.605,0l-0,105.93l-10.605,-0l0,-50.122l-56.853,-0l0,50.122l-10.604,-0l-0,-105.93Z" style="fill:#232323;fill-rule:nonzero;"/><path d="M1447.25,625.247l-11.636,-0l45.07,-105.93l10.31,0l44.775,105.93l-11.783,-0l-11.488,-27.829l-53.907,-0l-11.341,27.829Zm15.317,-37.704l45.954,0l-22.977,-56.256l-22.977,56.256Z" style="fill:#232323;fill-rule:nonzero;"/><path d="M1632.39,609.537l0.294,-0l0,-90.22l10.605,0l-0,105.93l-13.256,-0l-60.682,-91.118l-0.295,0l0,91.118l-10.605,-0l0,-105.93l13.256,0l60.683,90.22Z" style="fill:#232323;fill-rule:nonzero;"/><path d="M1757.44,538.319c-3.633,-3.89 -7.953,-6.908 -12.961,-9.052c-5.008,-2.145 -10.752,-3.217 -17.233,-3.217c-6.677,-0 -12.691,1.247 -18.042,3.74c-5.352,2.494 -9.893,5.86 -13.624,10.1c-3.732,4.239 -6.604,9.151 -8.617,14.737c-2.013,5.586 -3.019,11.471 -3.019,17.655c0,6.184 1.006,12.069 3.019,17.655c2.013,5.586 4.885,10.473 8.617,14.662c3.731,4.19 8.272,7.531 13.624,10.025c5.351,2.494 11.365,3.74 18.042,3.74c5.892,0 11.292,-0.648 16.202,-1.945c4.91,-1.296 8.886,-2.942 11.93,-4.937l0,-32.168l-24.302,0l-0,-9.426l34.907,0l-0,47.728c-5.695,3.491 -11.832,6.085 -18.411,7.78c-6.579,1.696 -13.403,2.544 -20.473,2.544c-7.855,-0 -15.121,-1.397 -21.798,-4.189c-6.677,-2.793 -12.422,-6.658 -17.233,-11.596c-4.811,-4.937 -8.567,-10.797 -11.267,-17.58c-2.701,-6.783 -4.051,-14.214 -4.051,-22.293c0,-8.079 1.375,-15.51 4.124,-22.293c2.75,-6.783 6.555,-12.643 11.415,-17.58c4.86,-4.938 10.605,-8.803 17.233,-11.596c6.627,-2.793 13.82,-4.189 21.577,-4.189c8.346,0 15.613,1.247 21.799,3.741c6.186,2.493 11.488,5.984 15.907,10.473l-7.365,7.481Z" style="fill:#232323;fill-rule:nonzero;"/><path d="M1811.05,615.671l55.822,0l-0,9.576l-66.427,-0l0,-105.93l64.659,0l0,9.576l-54.054,-0l-0,36.507l50.519,-0l0,9.425l-50.519,0l-0,40.846Z" style="fill:#232323;fill-rule:nonzero;"/></g></svg>